<?xml version="1.0" encoding="UTF-8"?>
<svg id="Calque_2" data-name="Calque 2" xmlns="http://www.w3.org/2000/svg" viewBox="0 0 147.34 168.57">
  <defs>
    <style>
      .cls-1 {
        fill: #f18859;
      }

      .cls-2 {
        fill: #f8b378;
      }

      .cls-3 {
        fill: #355ea9;
      }

      .cls-4 {
        fill: #733913;
      }

      .cls-5 {
        fill: #7d2d16;
      }

      .cls-6 {
        fill: #f9b21f;
      }

      .cls-7 {
        fill: #2e285b;
      }

      .cls-8 {
        fill: #f18b5b;
      }

      .cls-9 {
        fill: #7c2d17;
      }

      .cls-10 {
        fill: #ca7521;
      }

      .cls-11 {
        fill: #4e82c3;
      }

      .cls-12 {
        fill: #f5a573;
      }

      .cls-13 {
        fill: #3567b0;
      }

      .cls-14 {
        fill: #f7ad79;
      }

      .cls-15 {
        fill: #f8b277;
      }

      .cls-16 {
        fill: #396eb5;
      }

      .cls-17 {
        fill: #355fa9;
      }

      .cls-18 {
        fill: #f7af78;
      }

      .cls-19 {
        fill: #713813;
      }

      .cls-20 {
        fill: #f18759;
      }

      .cls-21 {
        fill: #f8b478;
      }

      .cls-22 {
        fill: #ffefba;
      }

      .cls-23 {
        fill: #396fb6;
      }

      .cls-24 {
        fill: #f18b5c;
      }

      .cls-25 {
        fill: #2c275b;
      }

      .cls-26 {
        fill: #ed9630;
      }

      .cls-27 {
        fill: #4b84c4;
      }

      .cls-28 {
        fill: #4e85c4;
      }

      .cls-29 {
        fill: #4786c6;
      }

      .cls-30 {
        fill: #8a3914;
      }

      .cls-31 {
        fill: #f18858;
      }

      .cls-32 {
        fill: #3b6fb5;
      }

      .cls-33 {
        fill: #7c2c16;
      }

      .cls-34 {
        fill: #3a6fb6;
      }

      .cls-35 {
        fill: #3a6eb5;
      }

      .cls-36 {
        fill: #ffedc9;
      }

      .cls-37 {
        fill: #4e83c3;
      }
    </style>
  </defs>
  <g id="Calque_1-2" data-name="Calque 1">
    <g>
      <path class="cls-29" d="M116.7,43.58l-1.13-.55c-4.04-6.13-8.28-12.06-12.72-17.78-1.36-1.96-3.59-2.18-2.84.73,4.22,6.34,8.38,12.72,12.44,19.16,1.73,2.74,10.64,17.13,10.51,18.96-.07,1.05-.53,1.45-1.54.92l-6.12-5.54c-1.4-.66-2.14-1.44-2.23-2.33l-2.12-.75c-13.57-10.24-30.38-11.46-46.78-10.88l-1.39-.62-.69.63c-7.07-1.3-13.58.28-18.34,5.84l-.82-.18-.63,1.34-8.52,6.01c-4.38,2.88-6.81,6.97-9.04,11.54l-.99.3c-.85.58-2.8-.63-2.65-1.66,4.69-18.36,13.84-36.93,26.63-50.98C62.66,1.32,82.65-6.45,102.97,6.5c8.81,5.62,22.65,24.19,24.43,34.48,1.32,7.67-6.8,5.16-10.7,2.6Z"/>
      <path class="cls-13" d="M118.02,167.71c-4.14.08-8.33,0-12.44.03-24.62.21-51.28,1.55-75.76.31-1.49-.07-2.93-.56-4.45-.35.1-3.92-.12-7.87-.02-11.79.02-.58.35-1.05.35-1.12l2.02.08c9.68,3.25,19.62,5.37,29.82,6.35l.91.53.45.05c.56,1.77,1.54,3.06,2.93,3.88,6.34.61,13.01.86,19.44.35,2.68-.21,4.54-1.3,4.9-4.13l.73-.47.85-.54c9.68-1.11,19.12-3.23,28.31-6.34l1.94-.06c.18.28.35.57.47.87.62,1.55.32,8.4.16,10.6-.05.63-.33,1.22-.63,1.77Z"/>
      <path class="cls-2" d="M133.24,166.72l-.4-.64c3.23-3.75,2.43-11.77-.37-2.01-.55,1.35-1.26,2.8-2.87,2.98-.37.34-.71.73-1.21.9-3.19-.36-6.5-.32-9.71-.24-.07-.15-.18-.14-.33,0-.11,0-.22,0-.33,0-.13-4.4.17-8.84,0-13.24-.95-.43-.93-1.54,0-1.99l.53-1.07c5.66-2.25,11.5-4.07,17.51-5.47l1.16.25c.97-1.49,3.2-2.59,4.96-2.32.36,2.28,1.66,4.74,1.68,7.45.06,6.68-3.72,13.93-10.62,15.39Z"/>
      <path class="cls-35" d="M116.7,43.58s-.29.24.01.76c4.6,7.7,8.58,15.37,11.9,23.74-2.33,1.3-4.33,3.29-5.63,5.63-1.96-2.79-4.49-5.28-6.95-7.61l-1.21-.22c-3-2.79-6.23-5.38-10-7.05l-.7-1.01-.72-.29c-1.59-4.21-7.46-5.15-11.46-5.34l-.39-.65c-.23-.24-.46-.68-.26-.84,2.1-1.81,8.56.96,10.83,2.38,1.7-.48,2.63-.12,2.79,1.08,1.13.6,2.48.89,4.07.88,1.19,1.03,2.55,1.74,4.09,2.14.76.58,1.82,1.12,2.65,1.82,2.22,1.84,4.14,4.09,6.45,5.8.23.07.23-.27.16-.49-1.26-4.01-7.22-13.42-9.65-17.49-4.17-6.97-8.84-13.69-13.24-20.51-.99-2.38.97-4.34,3.05-2.39,2.25,2.11,7.18,9.4,9.21,12.31,1.65,2.37,3.56,4.99,5.02,7.39Z"/>
      <path class="cls-19" d="M52.83,149.5c.99-.67,4.55-.05,5.52.38l.44.62.58.46c-.46,3.42-.52,6.94-.3,10.38l-.62.41c-11.15-.99-22.35-2.75-32.76-6.95.03-.6-.46-1.98,0-2.98,1.06-.88,4.55-.65,5.63.33l.79-.66c2.88.1,5.53-.44,8.09-1.61l1.38.28c.27-1.14,2.49-.4,2.48.66.32-1.1,4.45-1.01,4.96,0,.11-.96,3.23-2.3,3.81-1.32Z"/>
      <path class="cls-27" d="M18.42,120.04l-.08,1.17c-9.38,11.97-1.06,26.08,12.63,28.94.51.61,1.13,1.42.36,1.99-1.65-.02-4.03-.08-5.63-.33-15.09-2.38-23.02-17.55-15.36-31.09,1.4-2.47,3.68-4.23,5.1-6.65.45,1.44,2.08,4.76,2.98,5.96Z"/>
      <path class="cls-37" d="M142.18,143.88c-1.66.78-3.26,1.61-4.96,2.32l-.83-.74-1.85-10.96c-.88-4.66-2.29-9.38-5.46-13.01l-.13-1.12c.76-1.35,2.15-4.22,2.65-5.63,7.98,7.06,8.96,17.11,10.58,26.99.11.68-.1,1.49,0,2.14Z"/>
      <path class="cls-31" d="M133.24,166.72c-1.22.26-2.3.5-3.64.33.36-.33,1.34-1.46,1.6-1.88,1.04-1.65,1.57-4.71,2.4-5.87,2.01-2.82,2.62,3.29,1.24,4.55l-1.61,2.86Z"/>
      <path class="cls-1" d="M118.68,167.71c-.11,0-.22,0-.33,0l4.15-6.6c2.58-1.81,2.82.44,1.62,2.61-1.3,2.34-3.14,2.95-5.44,3.99Z"/>
      <path class="cls-3" d="M62.76,44.9c2.27.48,3.92,2.5,4.53,4.68l-.56.61c1.28.48.64,2.62.12,3.63-1.13,2.2-4.03,2.79-6.29,2.99-4.32.08-8.25.23-12.28,1.93-1.62.59-6.09.78-5.37-1.6-.31.09-.74.07-.81-.19-.49-1.74-.39-4.37.81-5.77,2.65-2.15,3.16-3.63,6.87-5.21,5.65-2.4,7.47-1.32,12.98-1.08Z"/>
      <path class="cls-34" d="M113.06,57.15c-.63-.26-1.99.02-2.43-.1-.61-.16-1.04-1.16-1.85-1.41-1.27-.39-3.22.18-4.31-.98-.31-.33-.53-1.48-.84-1.47-.06,0-.41.5-.75.6-1.17.33-3.78-1.75-5.23-2.24s-3.16-.7-4.66-.64c-.62.02-1.18-.22-1.44.62-.19.89-.81,1.16-1.32.33l-2.28.17c-6.8-.94-13.62-1.4-20.48-1.39l-.74-.44c-.29-2.4-2.3-3.8-3.97-5.3,6.85.29,13-.49,19.98.37,11.93,1.47,20.83,4.63,30.32,11.87Z"/>
      <path class="cls-32" d="M42.91,57.15l-.56,1.07c-2.69,1.6-4.99,3.74-7.19,5.96l-1.19.25c-2.76,2.77-5.41,5.67-7.61,8.94-.67-1.24-1.55-2.12-2.65-2.98,1.35-1.92,2.24-4.32,3.5-6.26,3.45-5.32,10.79-8.94,15.69-12.94-.13,1.54-.81,4.62,0,5.96Z"/>
      <path class="cls-23" d="M33.97,125.67c-4.18,8.19-1.01,20.44,7.61,24.49-.88.05-3.14,1.27-4.57,1.56-1.99.4-3.68.45-5.69.43l-.68-1.48c-14.77-3.31-22.62-17.94-12.23-30.63,3.62,4.83,9.79,6.2,15.55,5.63Z"/>
      <path class="cls-16" d="M137.21,146.19c-6.48,2.68-13.31,2.66-19.19,6.29-1.19-2.54-1.9-6.52-1.32-9.27-1.47-2.44-2.22-6.1-1.99-8.94,5.49-3.05,11.15-8.42,14.23-13.9,6.51,6.66,6.38,17.19,8.27,25.82Z"/>
      <path class="cls-11" d="M114.71,134.28c.87,2.93,1.46,5.93,1.99,8.94-.21.28-.42.56-.67.79-1.97,1.89-10.15,3.96-13.26,4.69-3.23.76-12.21,2.66-14.9,1.86-.33-.1-.65-.24-.96-.4-.13.09-.26.16-.39.19-.25.05-2.28-3.01-2.58-3.5-.67-1.02-.15-.52.48-.67,3.26-.78,6.68-1.68,9.67-3.24,1.31-.69,3.36-2.62,4.41-3.04,5.28-2.11,10.63-2.52,16.21-5.63Z"/>
      <path class="cls-4" d="M118.02,152.48c.04.66-.03,1.33,0,1.99-9.86,4.12-20.54,5.73-31.1,6.95.15-1.39.26-10.36,0-11.25,10.25-.43,20.49-2.6,29.78-6.95.52,3.02,1.14,6.2,1.32,9.27Z"/>
      <path class="cls-28" d="M63.75,146.52c-2.39,0-4.45,1.64-4.96,3.97-1.95.32-4.14-1.15-5.96-.99,2.06-1.45,4.7-2.97,6.29-4.97l4.63,1.99Z"/>
      <g>
        <path class="cls-6" d="M63.75,146.52c3.74-.01,7.75,1.52,12.07,1.32,2.34-.11,6.02-1.33,8.11-.99.73.12,1.22.57,1.66,1.16.17.23,1.28,2.03,1.32,2.15l.71.3c.19,3.49.11,7.01-.02,10.5l-.7.45c-.43,3.91-2.47,5.05-6.11,5.31-4.15.3-10.06.21-14.26,0-1.17-.06-3.93-.2-4.88-.41-1.66-.37-3.02-3.03-3.21-4.56-.31-2.37-.18-8.94.33-11.25-1.15-.82.5-2.7,1.37-3.37,1.29-1.01,2.04-1.02,3.6-.6Z"/>
        <rect class="cls-30" x="64.75" y="151.16" width="15.88" height="10.59"/>
      </g>
      <g>
        <path class="cls-36" d="M57.8,93.56l.88.29c5.82,8.66,22.44,8.28,28.66.25l.9-.21.8-.49c11.04,2.93,25.34,6.2,28.84-8.55,1.39-5.86-.07-12.21-2.15-17.73l.3-1.03c1.8.21,6.82,5.52,6.97,6.89.03.24,0,.48-.02.73l.84.05c1.25,1.87,2.4,3.82,3.47,5.8-.35.21-.5.46-.34.77,1.04-.24,2.45,2.58,1.65,3.31l.9.4c2,4.92,3.59,10.08,4.32,15.36l-.58.79c.38,4.4-.19,10.38-1.65,14.56l.42.72c.02.39-2.12,5.52-3.07,4.91.14.38.2.77.08,1.17-.5,1.66-4.41,5.79-5.84,7.17s-5.69,5.19-7.32,5.66c-.39.11-.79.05-1.16-.09-.95,1.37-2.45,2.28-4.51,2.73l-10.57,3.18-1.13-.28.34-1.3c8.27-8.39,8.58-21.89,1.61-31.03l.03-1.1-.78-.21c-.26-3.03-5.28-4.86-7.45-2.73l-.71-.37-.98,1.09c-9.43,3.85-19.41,3-29.05.51l-1.08-.94c-.12.3-.33.47-.65.5-2.12-1.18-4.48-1.89-6.49-.17l-.8-.33-.39.82c-4.2,1.94-6.95,4.88-7.74,9.55l-.81.55c-.19,1.24-.18,2.36.02,3.36-3.47,1.66-6.68,3.62-8.65,7.16l-.97.4c-1.41,1.34-4.72.78-6.67.38-1.81-.37-3.58-.96-5.18-1.89-1.45-.84-3.94-2.38-3.7-4.12-.15.08-.3.14-.45.14-.56,0-3.48-5.11-2.53-6.1-1.22-3.87-1.55-9.56-.99-13.57l-.5-1.09c.88-4.94,2.59-9.7,4.76-14.21l1.04-.59c-.45-1.29.96-4.15,2.32-4.3-.04-1.39.56-2.8,1.78-4.25.61-1.48,1.45-2.38,2.52-2.7-.01-.28-.01-.56.03-.83.31-1.85,5.51-7.43,7.58-8.11l.4.81c-5.09,13.04-7.23,33.53,13.17,30.17l9.41-2.33.85.49Z"/>
        <path class="cls-14" d="M21.07,68.74c.67.36,2.08,1.21,2.65,1.66,1.28-.48,3.28,1.77,2.65,2.98-1.36,2.02-3.02,4.77-4.3,6.95l-.66.43c-2.63-2.6-11.18-7.39-13.32-2.96,1.89.81,4,1.37,6.33,1.66,2.09.67,5.54,2.87,5.33,5.17-2.37,4.61-4.58,10.75-5.29,15.89-9.17-3.01-16.17-13.91-14.08-23.51s12.2-12.83,20.69-8.26Z"/>
        <path class="cls-18" d="M133.24,100.18c-.41-4.73-2.69-12.17-4.63-16.55.15-1.86,3.07-3.62,4.81-4.35,1.09-.18,9.72-1.68,6.19-3.79-2.09-1.25-9.66,3.11-11.63,4.5l-1.02.34c-.99-1.91-2.74-4.87-3.97-6.62-.42-1.97,2.93-4.9,4.65-5.82l.98.19c6.07-3.4,12.79-2.19,16.48,3.87,6.11,10.05-1.01,24.87-11.85,28.24Z"/>
        <path class="cls-15" d="M43.57,114.75v2.98c3.47-1.88,7.91.12,8.6,3.97-.02.27-.1.59-.33.67-1.86.59-11.51,3.89-9.81,6.8.12.2,1.15-.21,1.39-.36,5.41-4.04,15.5-8.77,16.44,1.81-4.41.99-9.11,2.14-11.7,6.18-.36.57-.1.9.53,1.01,2.48-1.9,10.08-7.26,12.88-3.87.25.3.25.61.21,1,.09,2.16.44,2.95-.33,5.3.91.81-1.06,4.45-2.32,4.3l.05.96c-1.8,2.06-3.91,3.39-6.34,4.01-.96.08-2.97,1.32-3.81,1.32h-4.96c-.44,0-1.55-.72-2.48-.66-2.09.2-3.86-1.61-5.21-3.11-3.67-4.07-5.35-10.03-4.79-15.44.2-1.92.61-5.17,2.39-5.95,1.4-2.73,3.61-4.95,6.19-6.55.6-.37,2.8-1.19,2.93-1.38s.32-2.27.48-2.99Z"/>
        <path class="cls-10" d="M98.5,139.9c.1.26.16.6-.03.75-4.33,3.41-9.04,5.43-14.53,6.2l-.46.61c-6.53,1.28-12.35,1.11-18.98-.26l-.75-.68c-.86.04-4.14-.65-4.47-1.19-.15-.25-.22-.5-.17-.79.65-.81,1.99-3.29,2.32-4.3,12.81,5.2,31.46,3.43,38.44-10.04,3.03-5.85,2.43-12.21.19-18.18-.36-.95-.69-2.32-1.57-2.9-.11-.87,1.16-2.39,1.99-2.65.57.92,1.55,1.8,2.16,2.97,5.53,10.63,4.52,21.94-4.14,30.46Z"/>
        <path class="cls-24" d="M22.06,80.32c-.73,1.25-1.64,2.99-2.32,4.3-.95-1.52-2.9-3.47-4.55-4.22-1.56-.7-6.6-1.22-7.23-1.71-1.43-1.11.18-3.08,1.7-3.32,2.09-.34,6.83,1.13,8.71,2.17,1.49.83,2.16,2.2,3.68,2.78Z"/>
        <path class="cls-8" d="M128.61,83.63c-.4-.91-1.17-2.37-1.65-3.31-.16-.74.4-.7.82-.99,1.94-1.34,11.25-6.98,12.92-3.65,1.76,3.51-5.3,3.41-7.52,4.4-1.92.85-2.99,2.27-4.56,3.55Z"/>
        <path class="cls-5" d="M100.48,106.47c0,.89-1.25,2.36-1.99,2.65-3.33,1.3-9.28-2.12-6.95-5.96.75-.3,1.16-1.13,2.58-1.26,1.59-.14,4.3.88,5.37,2.08.81.91.7,2.02.99,2.49Z"/>
        <path class="cls-9" d="M60.44,103.82c3.1,7.57-9.57,6.72-7.94,0,1.57-.73,1.41-1.4,3.81-1.35,2.09.04,2.68,1,4.13,1.35Z"/>
        <path class="cls-17" d="M91.55,51.52c3.82-.18,12.06,1.67,12.57,6.29.56,5.07-5.48,4.07-8.4,4.35-3.4.32-8.8,3.28-11.48,2.46-2.32-.72-2.29-4.1-1.71-6.05.91-3.07,4.68-6.07,7.68-6.71.44-.09.71-.3,1.32-.33Z"/>
        <path class="cls-22" d="M65.41,80.98c-.35.11-1.37.51-1.65.66-.39-.77-.43-1.78-.11-3.04-2.41-15.92-20.21.06-7.37,6.58,1.11-.02,1.95.23,2.51.76-.32.29-.52.61-.99.99-4.85,3.98-11.65,1.8-15.39-2.64-11.75-13.98,9.38-32.58,22.34-20.03,4.96,4.8,4.86,11.49.66,16.72Z"/>
        <g>
          <path class="cls-21" d="M90.22,51.86l-.27.75c-5.3.46-11.49,12.22-3.03,11.3,4.21-1.63,8.48-2.49,12.82-2.57,1.89-.12,3.91-.8,3.74-3.05l.63-.48c4.58,1.76,8.39,4.95,11.91,8.28,3.18,7.85,4.98,17.94-.39,25.27-6.26,8.55-18.89,4.54-27.41,2.54l-.31-.85c4.28-11.96-13.52-14.37-21.65-11.64l-.88-.43-.05-1.02c9.68-16.25-13.35-26.75-23.28-12.09-7.09,10.46,3.26,24.86,14.81,18.94l.91.14.47.72c-.52,1.68-.73,3.46-.08,5.13l-.4.77c-7.05,1.55-15.12,5.22-21.95.93-9.15-5.75-5.06-21.77-1.88-30.06,2.76-2.78,5.41-5.41,8.93-7.28,1.85,3.04,7.36.02,9.92-.51,4.84-1,14.86,1.37,13.91-6.45,7.83,0,15.9-.23,23.49,1.66Z"/>
          <path class="cls-7" d="M102.06,80.57c-1.9,1.89-4.41-1.62-5.77-2.51-2.15-1.42-4.42-1.59-6.81-.63-1.78.71-4.55,4.28-6.45,2.48-3.04-2.87,3.69-7.12,6.13-7.76,4.03-1.06,9.76.22,12.31,3.71.81,1.1,1.65,3.66.59,4.72Z"/>
        </g>
        <path class="cls-1" d="M52.17,121.7c1.68.09,5.75,1.67,6.76,3,1.7,2.23.7,3.46,1.25,5.37.19.68,1.62,1.94,1.86,3.13.18.92-.28,1.44-.27,1.74-2.55-2.29-5.5-1.19-8.17.27-1.1.6-4.24,3.45-5.07,3.25-3.26-.82,1.08-4.49,2.35-5.31,2.46-1.59,5.64-2.72,8.58-2.84-1.62-7.74-7.2-5.93-12.47-3.03-1.24.68-5.73,4.67-5.76,1.22-.03-2.81,8.38-6.92,10.95-6.79Z"/>
        <path class="cls-25" d="M63.75,81.65c-1.77.94-3.53,3-4.96,4.3-8.52,1.11-10.41-11.39-3.16-14.25,6.35-2.5,10.17,4.49,8.12,9.94Z"/>
        <g>
          <path class="cls-20" d="M88.24,93.89c-5.05,9.15-26.05,9.4-30.44-.33-1.06-2.36-.74-4.24,0-6.62-.22-.47.11-.8.99-.99-.31-1.13,3.21-4.25,4.15-4.59l.82.29c.6-1.19,1.15-1.41,1.65-.66,6.59-2.12,16.8-1.91,21.85,3.47,2.52,2.68,2.73,6.27.98,9.44Z"/>
          <path class="cls-12" d="M72.29,82.71c2.07-.11,8.26.81,8.94,3.15.57,1.95-1.79,3.48-3.45,3.7-2.55.35-6.49.42-8.82-.71-5.13-2.5-.23-5.95,3.33-6.13Z"/>
        </g>
        <g>
          <path class="cls-26" d="M91.55,103.16l.41.63c-1.25,3.24,3.2,5.42,5.91,4.83l.63.49.83-.16c13.09,25.42-15.08,41.15-37.23,32.24l-.66-.97c-.45-.52-.51-1.29-.19-2.3-.31-1.45-.13-2.45.52-3-.3-.59-.49-1.31-.59-2.16l-1.62-2.49c.58-4.98-2.43-6.94-6.93-7.87l-.46-.72-.74-.28c-.93-3.24-4.54-4.58-7.51-3.18-.75-.04-1.1-.36-.55-.87l.19-2.62c1.4-6.3,3.26-8.29,8.93-10.92l.57.54c-.8,5.05,8.79,6.01,6.93.16l.45-.7c11.59,2.78,19.7,3.94,31.1-.66Z"/>
          <path class="cls-33" d="M71.93,124.42c7.93-1.64,8.95,10.47.58,9.53-5.24-.59-5.99-8.41-.58-9.53Z"/>
          <path class="cls-33" d="M89.8,117.47c8.71-1.8,8.58,10.42.95,9.5-5.44-.66-6.02-8.45-.95-9.5Z"/>
          <path class="cls-33" d="M63.02,112.17c7.36-.72,7.95,10.18-.11,9.2-5.3-.64-5.75-8.63.11-9.2Z"/>
          <path class="cls-5" d="M77.89,108.86c2.38-.54,6.24.28,6.69,3.09,1.18,7.25-10.48,5.33-9.18-.61.2-.9,1.6-2.29,2.49-2.49Z"/>
        </g>
      </g>
    </g>
  </g>
</svg>