<?xml version="1.0" encoding="UTF-8"?>
<svg id="Calque_2" data-name="Calque 2" xmlns="http://www.w3.org/2000/svg" viewBox="0 0 148.18 166.08">
  <defs>
    <style>
      .cls-1 {
        fill: #f18859;
      }

      .cls-2 {
        fill: #e62d77;
      }

      .cls-3 {
        fill: #e52e77;
      }

      .cls-4 {
        fill: #e94a67;
      }

      .cls-5 {
        fill: #f5a576;
      }

      .cls-6 {
        fill: #f08458;
      }

      .cls-7 {
        fill: #ffedc7;
      }

      .cls-8 {
        fill: #e75197;
      }

      .cls-9 {
        fill: #d52867;
      }

      .cls-10 {
        fill: #2d275a;
      }

      .cls-11 {
        fill: #e8327f;
      }

      .cls-12 {
        fill: #e52e76;
      }

      .cls-13 {
        fill: #f6ac78;
      }

      .cls-14 {
        fill: #f6a777;
      }

      .cls-15 {
        fill: #ffedc8;
      }

      .cls-16 {
        fill: #f5a475;
      }

      .cls-17 {
        fill: #f18b5c;
      }

      .cls-18 {
        fill: #feecc6;
      }

      .cls-19 {
        fill: #d52864;
      }

      .cls-20 {
        fill: #e94a65;
      }

      .cls-21 {
        fill: #f1885b;
      }

      .cls-22 {
        fill: #e62c77;
      }

      .cls-23 {
        fill: #f5a474;
      }

      .cls-24 {
        fill: #dc256f;
      }

      .cls-25 {
        fill: #e94573;
      }

      .cls-26 {
        fill: #f1875a;
      }

      .cls-27 {
        fill: #f8aa21;
      }

      .cls-28 {
        fill: #ba7db4;
      }

      .cls-29 {
        fill: #2c275a;
      }

      .cls-30 {
        fill: #e8317f;
      }

      .cls-31 {
        fill: #f5a374;
      }

      .cls-32 {
        fill: #ffefb9;
      }
    </style>
  </defs>
  <g id="Calque_1-2" data-name="Calque 1">
    <g>
      <g>
        <path class="cls-30" d="M134.22,47.73c-1.3.73-1.65.77-3.15,1-.62.09-1.34-.41-1.15.65.3.92-.49,1.05-1.05.13-1.56-5.92-8.85-24.27-14.23-26.43s1.77,8.98,2.86,10.09c.62.1.93.26.84.99l-.65.58c-2.98-.44-5.17,1.54-7.12,3.51-1.05.58-1.66-.16-1.83-2.21-4.01-10.6-17.43-8.96-9.5,2.56l-.11.85c-.49,1.08-4.55,1.04-5.13,0l-.19.69c-6.14,2.34-.33,8.91,3.93,9.49l.22.74c.43-1.07,4.28-1.03,4.8,0,.89.97.49,3.99-.33,4.97l-.9.1c-22.44-9.68-53.8-13.3-71.46,7.16l-1.44.69c-.08-.25-.15-.5-.17-.75-.21-2.36,8.65-16.12,10.6-18.99C55.31,19.79,80.82-3.97,111.54,8.69c12.11,4.99,20.58,15.92,23.35,28.57.7,3.2,1.48,7.79-.67,10.47Z"/>
        <path class="cls-24" d="M118.34,34.16c-.49-.28-1.13-.29-1.36-.54-.64-.71-3.82-6.29-4.4-7.44-2.27-4.56,1.41-5.24,4.1-2.35,5.8,6.2,10.77,17.83,12.91,25.9.18-.02.28-.33.32-.34.33-.05,2.06,4.99,2.32,5.79,2.57,7.92,3.8,16.11,4.96,24.34l-.78.67c-3.76.13-7.11,2.02-9.79,4.57l-1.02.06c-8.73-19.54-32.04-30.01-52.28-31.78-1.95.85-5.4.67-7.28-.33l-1.41.68c-14.67-.29-27.51,6.14-35.31,18.71l-1.33.81c-.16.05-.31.09-.45.07-.23-.03-2.66-3.15-2.84-3.49-.15-.26-.07-.6-.01-.89.73-1.79,1.71-3.48,2.96-5.06l1.02-.23c12.52-15.49,29.76-17.39,48.48-15.56,9.02.88,17.09,4.09,25.32,7.61l.72.31c.89,3.7,4.05,6.24,7.91,5.61l.3.7c.92-.38,1.22-.29,2.07,0,4.91,1.65,11.17,8.81,14.01,13.18,8.09,8.82.33-14.28-.64-16.47l.12-1.34-.36-.63c3.08-4.21-1.9-8.36-5.47-10.04l-.58-.69c2.63-3.96,2.94-9.15-2.21-11.06v-.76Z"/>
        <path class="cls-8" d="M134.22,47.73c1.37-4.49.47-9.17-.82-13.58-2.86-9.74-10.24-19.13-19.4-23.62C78.6-6.8,48.64,26.98,32.91,54.79c-1.53,2.7-3.1,5.61-4.24,8.5-1.18,1.46-1.98,2.93-2.98,4.48-.28.43-.28.97-.99.81-.59.76-2.26-.07-1.99-.99,3.42-12.56,10.09-23.9,18.07-34.06C57.62,12.06,82.78-8.98,111.61,3.98c11.03,4.96,20.7,16.06,24.36,27.6,1.45,4.58,3.25,13.32-1.75,16.15Z"/>
        <path class="cls-11" d="M111.39,61.96c2.05-1.25,3.23-2.43,4.07-4.7.28-.74.02-2.24.92-1.37,1.09,1.06,2.17,2.49,3.8,2.74s5.5-.03,6.76-1.3c2.02,4.24,3.39,9.51,4.21,14.16.39,2.24,2.16,7.15-1.65,6.29-1.82-.41-3.96-4.52-5.21-6.05-2.5-3.05-9.04-9.09-12.9-9.77Z"/>
        <g>
          <path class="cls-28" d="M102.46,55.34c-.2-1.66.15-3.33.33-4.97h-4.8c-.29,0-2.91-1.03-3.37-1.27-2.74-1.41-5.56-5.48-3.24-8.32.44-.54,2.02-1.34,2.63-1.34h5.13c-6.32-6.42-1.97-15.91,6.62-8.78,2.21,1.84,3.95,4.51,3.97,7.45,2.6-2.5,4.57-4.67,8.6-3.97.99.58,2.56,1.28,3.31,2.15,2.17,2.48,1.74,7.35-.66,9.61,2.99,1.01,7.44,4.89,7.3,8.27-.02.56-1.01,2.81-1.35,3.15.21,1.88-4.48,2.21-5.98,2.04-2.18-.24-3.24-.99-4.66-2.62-.67,2.26-2.3,5.33-4.91,5.21-.91-.16-2.02.12-3.07-.08-2.92-.56-5.52-3.64-5.87-6.54Z"/>
          <path class="cls-27" d="M108.32,41.18c4.65-1.04,11.09,3.01,8.78,8.12s-12.99.69-11.92-4.96c.24-1.26,1.92-2.88,3.15-3.16Z"/>
        </g>
      </g>
      <g>
        <path class="cls-15" d="M125.62,84.8l.76.09c.9,2.24,1.64,4.57,2.31,6.89l-.43.96c1.13.13,1.55,3.02.66,3.64.22.25.43.52.6.8.77,1.31,1.8,9.99,1.4,11.51-.08.32-.21.63-.35.93.51,4.84,1.69,4.36,3.14,8.28,1.93,5.19,1.29,11.04-2.11,15.44,1.89,2.76,3.14,6.33,2.61,9.72,1.2,1.05-.94,3.53-1.84,4.46-1.16,1.22-2.35,2.01-3.95,2.58-1.37.48-4.58,1.06-5.46-.09-4.83.38-6.97-5.4-6.59-9.6l-.36-.66c-1.41.83-3.14-1.5-3.86-2.71-2.23-3.75-1.46-7.43-.19-11.26l-2.35-4.47.45-.75c-1.63-1.24-1.23-4.84-.75-6.78.65-2.66,1.93-4.51,3.75-6.39-1.77-6.05-3.39-11.68-2.67-18.35.32-2.95,1.97-10.93,3.56-13.09.17-.23.44-.35.7-.45-5.48-.46-11.05-2.08-16.34-3.75-7.06-2.23-17.69-6.09-22.48-12.04-1.32-1.64-3.48-4.73-2.49-6.68.23-.15.47-.28.73-.38,2.13-.78,12.67,2,15.47,2.86,12.42,3.8,24.65,10.8,32.34,21.49,1.09,1.52,3.83,5.38,3.84,6.95,0,.28-.04.56-.1.85Z"/>
        <path class="cls-7" d="M66.06,52.7c.69,1.56-1.03,3.65-2.07,4.91-3.46,4.18-9.83,6.37-14.96,7.78s-10.72,2.82-16.13,4l-.79,1.84c-9.95,14.04-11.62,33.93,1.72,46.39l.47,1.29-.45,1.2c-6.15,4.94-9.58,11.92-11.35,19.49l-.44.5c-.08.91-2.02,1.19-2.88,1.27-3.48.31-6.14-.89-8.39-3.6-1.32-1.6-3.18-4.76-1.64-6.6.33-2.91,3.25-4.98,5.23-6.82-2.25-7.12-.47-14.83,4.65-20.22-.25-2.66-.57-6.06-.28-8.71-.45-1.68-.29-3.46.48-5.35l1.74-5.75.76-.15c-.3-1.4.51-4.16,1.99-4.3.02-1.96,1.98-5.1,3.3-6.64l1-.32c9.68-14.79,20.25-20.11,38.05-20.19Z"/>
        <path class="cls-5" d="M43.56,133.46c.7-.62,1.1-.18.99.66l1,.68c1.86,6.18,4.56,11.84,8.08,16.99l.18,1.2c-5.8,2.79-13.17,4.32-19.52,2.65-5.84-1.54-11.37-7.08-11.91-13.24-.86-.39-.71-2.25.33-2.32.26-6.51,7.93-10.83,14.12-10.11,2.18.26,6.17,1.28,6.73,3.49Z"/>
        <path class="cls-13" d="M137.2,79.51c5.69.14,10.31,4.91,10.88,10.47,1.1,10.82-7.35,18.48-17.5,19.65-.47-4.43-.81-8.86-1.65-13.24,1.89-3.84,5.72-5.48,9.86-5.56,2.46.04,3.18-2.53.36-2.56-3.91-.03-7.25,1.71-9.93,4.5h-.95c-.51-2-1.83-6.13-2.65-7.96,3.14-3.15,6.99-5.41,11.58-5.3Z"/>
        <path class="cls-13" d="M22.71,67.59c.34.14,1.79.84,1.99.99,1.05.8,2.73,3.05,3.31,4.3-1.37,2.09-3.1,4.74-4.3,6.95-.75-.31-1.34-.97-1.77-1.96-2.09-5.04-13.32-5.4-3.39-.33,1.6,1.73,3.51,4.15,3.17,6.6-.94,2.51-2.7,8.71-2.98,11.25-.14-1.27-1.63-1.6-2.47-2.32-5.41-4.66-9.22-12.48-6.72-19.61,2-5.71,7.52-8.19,13.16-5.87Z"/>
        <path class="cls-7" d="M21.72,145.05c-1.24,4.25-2.35,8.23-6.44,10.61-10.92,6.35-20.3-6.24-12.26-16.24.51-.63,1.87-1.56,2.15-1.98l.86.46c2.19,6.1,8.72,9.07,14.77,6.8l.91.35Z"/>
        <path class="cls-18" d="M140.18,165.57h-15.22c-.11,0-.22,0-.33,0-2.35-2.94-3.8-6.42-4.21-10.2-.07-.64-.47-1.22.57-1.06l.72-.19c4.33,2.89,13.52-.19,15.16-5.14l.67-.29c4.68,4.12,6.26,11.54,2.65,16.88Z"/>
        <path class="cls-2" d="M22.05,140.08c.18-.64.47-.64.66,0-.15.49-.1,1.52-.33,2.32-.25.89-.41,1.77-.66,2.65-7,2.95-14.3-.43-16.55-7.61.56-.83.62-2.55,1.38-3.75.58-.91,1.74-1.86,2.59-2.54-.48,4.26,3.6,9.02,7.8,9.57,2.17.28,3.24-.39,5.1-.63Z"/>
        <path class="cls-22" d="M137.53,148.69c.08,5.16-13.15,9.81-16.55,5.63-1.44-1.77-.03-2.57-.33-4.3.53-.11,1.11.33,1.55.32.5-.02.73-.32.77-.32,2.84-.1,4.44.14,7.06-1.38,1.69-.99,3.89-3.63,4.19-5.57,1.65.56,3.28,4.07,3.31,5.63Z"/>
        <path class="cls-9" d="M140.18,165.57h-15.22c5.07-.08,10.15.06,15.22,0Z"/>
        <path class="cls-25" d="M116.02,139.75c-5.38,5.84-10.03,12.62-16.88,16.88l-.51-.81c1.36-8.73-4.55-18.66-13.72-19.45l-.66-.59c-.29-.01-.7-.14-.68-.36.05-1.04,3.98-5.75,4.85-6.12.02-.01.07.39-.2-.14,7.65-1.47,15.16-4.73,21.84-8.61.34,1.43,2.49,4.37,2.56,5.18s-1.14,3.5-1.23,4.92c-.22,3.55,1.2,7.55,4.63,9.1Z"/>
        <path class="cls-17" d="M128.27,92.75c2.11-1.99,3.76-3.56,6.62-4.47,1.97-.63,7.7-1.78,6.56,1.92-.49,1.61-4.86,1.3-6.47,1.81-2.1.66-3.96,2.3-5.23,4.05-.32.44.16,1.02-.81.33-.21-1.12-.39-2.59-.66-3.64Z"/>
        <path class="cls-25" d="M45.87,125.19c.23.14.57.35.53.54-.16.84-1.79,7.2-2.09,7.45-.23.19-.47.29-.77.28-7.56-5.92-18.04-2.38-20.85,6.62-.22.02-.45-.03-.66,0,1.04-8.33,5.6-16.13,12.24-21.18,2.94,2.46,7.99,4.92,11.58,6.29Z"/>
        <path class="cls-17" d="M23.7,79.84c-.56,1.03-1.58,3.21-1.99,4.3-.79-1.93-1.94-4.5-3.46-5.97-1.2-1.16-6.64-2.66-3.62-4.59s8.25,3.36,9.07,6.25Z"/>
        <path class="cls-16" d="M62.42,133.13l1.54.51c3.91,5.64,12.95,13.94,17.19,3.94l.79-.15c-.8-.73,1.6-2.43,2.32-1.66,1.01-.24,2.63.2,3.64.5,8,2.31,13.08,12.39,11.25,20.36-13.04,8.12-32.27,7.05-42.69-4.97l-.77.1c-2.79-4.14-5.09-8.6-6.92-13.37-.82-1.58-1.81-3.07-3.11-4.29l-.12-.98c1.23-2.41,5.76-3.27,8.42-3.29s7.25.8,8.46,3.29Z"/>
        <g>
          <path class="cls-9" d="M116.02,139.75c.19.08.85-.13.97.01.11.13,0,2.67.11,3.37.47,3.08,2.6,6.39,5.87,6.87.58,1.02-.75,1.15-1.58.8-.15.1-.69,2.51-.06,2.86l-.35.64c.17,3.56,1.48,7.18,3.61,10.12l.03,1.14c-31.72.5-63.7.67-95.47.34-.56,0-1.47.21-1.82-.34.03-.33.28-.63.62-.66l37.68-.04-2.5-1c-2.42-2.03-4.97-3.58-7.66-4.65-6.58,2.78-13.04,4.49-20.42,3.13-1.49-.28-3.99-.86-4.75-2.07,1.27-1.74,2.54-3.06,3.97-4.63l1.07-.43c5.85,1.17,11.92-.04,17.32-2.43l1.13.2c.46-1.24,1.4-1.71,2.65-1.32l1.28.43c10.33,10.71,27.46,11.67,40.09,4.56l1.32-.02.66-1.22c5.53-4.41,10.5-9.48,14.9-15.2.39-.28.83-.43,1.31-.46Z"/>
          <path class="cls-12" d="M30.32,160.27c1.77.42,3.48,1.16,5.28,1.51,4.9.95,10.72.15,15.41-1.5,3.02-1.06,3.38-2.69,6.62-1.01,1.91.99,3.88,2.88,5.67,3.93,1.42.83,3.35.93,4.41,2.37H27.34c-.42-.37,2.55-4.7,2.98-5.29Z"/>
          <path class="cls-3" d="M115.36,165.57h-22.17c-.1-.57.12-.69.58-.91,4.77-2.35,8.39-3.04,12.81-6.71.82-.68,3.64-3.97,4.31-3.97,2.47,0,3.75,9.71,4.47,11.6Z"/>
        </g>
        <path class="cls-1" d="M56.46,151.67c-.89.43-1.76.9-2.65,1.32-4.94-5.33-6.46-12.39-9.27-18.87-.84-.73.13-1.69.99-.99,4.29,3.49,5.38,9.51,8.1,14.24.6,1.05,2.1,3.47,2.82,4.3Z"/>
        <path class="cls-19" d="M88.23,129.16c1.19-.05.49.17.16.66-1.08,1.58-2.33,2.95-3.48,4.46-.37.49-.8.72-.65,1.5-.14.03-2.25,1.53-2.32,1.66-1.06,1.62-3.45-.81-3.64-2.32l-.92.17c-3.46-2.24-7.81-3.38-11.81-1.95l-1.18-.21c-.24.75-.9.75-1.99,0-5.51-3.62-11.41-3.4-16.88,0-.43.27-.79.49-.99.99-.42-.1-.67-.41-.99-.66l2.32-8.28c13.28,5.06,28.34,6.67,42.36,3.97Z"/>
        <path class="cls-26" d="M64.4,133.13l1.18-.04,5.02,4.37c1.77,2.12,9.88,4.26,6.98-.87-.27-.8-.26-1.42.72-1.48,1.26.9,2.02,2.53,3.64,2.32-.31.53-.34,1.41-1.05,2.43-3.1,4.43-8.14,3.45-11.86.39-1.97-1.62-5.22-6.21-6.61-7.12.58.1,1.49-.14,1.99,0Z"/>
        <path class="cls-31" d="M78.3,135.12c-.83,1.62,1.31,2.18.49,3.97-1.19,2.6-5.64.93-7.41-.19-1.54-.97-6.08-5.52-6.98-5.76,4.44-2.22,10.03-.8,13.9,1.99Z"/>
        <g>
          <path class="cls-14" d="M73.34,53.03c1.47,7.55,8.76,11.57,15.23,14.39,8.32,3.62,17.55,6.13,26.46,7.79-1.08,2.17-1.9,4.54-2.55,6.88-1.73,6.24-2.07,10.58-.98,17.01.29,1.72,2.3,7.56,2.22,8.37s-1.32,1.49-1.8,2.18c-2.3,3.32-2.79,6.95-1.84,10.9-.13.27-.28.53-.45.77s-.35.45-.57.57c-3.6,2.05-16.49,8.22-19.96,7.54-.29-.06-.58-.16-.86-.28-.27.22-.54.44-.84.6s-.58.33-.89.38c-13.36,2.07-26.35.75-39.11-3.69-.29-.1-.54-.31-.8-.52s-.5-.47-.72-.74l-.91.35c-3.69-1.51-7.32-3.28-10.52-5.67l-.15-.97c-11.2-9.39-13.3-25.39-7.89-38.52,1.64-3.98,4.35-7.57,6.13-11.49,5.75-1.53,11.63-2.69,17.32-4.44,6.83-2.11,13.54-4.43,16.22-11.75,2.56-.01,4.75.11,7.28.33Z"/>
          <g>
            <path class="cls-29" d="M101.46,79.84c1.23-.06,5.71-3.45,6.47-.69,1.04,3.76-2.75,5.03-5.77,4.7-.63,3.74-2,6.03-4.68,8.56-5.87,3.21-9.03-4.21-8.81-8.98l-13.66-.61-.36-.68c.18-1.49.94-2.74,1.65-3.97.36-.16.73-.31,1.1-.42s.74-.2,1.1-.2c7.77.06,14.88.82,22.37,1.62l.57.65Z"/>
            <path class="cls-29" d="M37.27,72.89c.29-.15.59-.3.91-.39,2.8-.85,14.06,1.87,17.44,2.91.28.09.53.26.79.45s.5.43.72.67c1.35,4.18,1.6,7.98-1.32,11.59-.37.13-1.18.72-1.65.99-6.31,3.32-10.43-4.56-8.5-10.01-2.56-.32-5.1-.77-7.6-1.34l-.77-.57c-2.44-.4-5.49-.1-5.33-3.48.19-3.89,3.09-.69,4.9-.59.25.01.4-.23.43-.23Z"/>
            <path class="cls-32" d="M74.66,82.15l14.89.66c-.59,5.13,1.83,11.15,7.94,9.6-8.9,8.44-24.31,1.78-22.83-10.26Z"/>
            <path class="cls-4" d="M101.46,79.84c-3.37.16-9.31-1.09-13.07-1.32-4-.25-8.07-.24-12.07-.33,2.82-4.89,7.76-7.12,13.4-6.61,3.95.36,10.83,4.02,11.75,8.27Z"/>
            <path class="cls-32" d="M37.27,77.19c3.07.51,6.2.8,9.27,1.33-2.14,5.68.89,12.27,7.61,10.59-.87.49-2.01,1.61-2.98,1.99-8.46,3.33-17.21-5.41-13.9-13.9Z"/>
            <path class="cls-10" d="M92.19,106.98l-1.98-1.66c-2.26,3.72-6.54,6.51-10.79,7.59-1.47.37-8.73,1.76-7.18-1.54.7-1.48,2.53-.92,3.8-1.17,2.16-.42,4.47-1.13,6.39-2.22.8-.45,5.44-3.99,5.45-4.48,0-.4-2.39-1.34-1.49-3.15.83-1.64,4.17.22,4.95,1.34,1.08,1.55.84,3.51.84,5.28Z"/>
            <path class="cls-20" d="M57.12,76.53c-6.44-1.9-13.14-3.31-19.85-3.64,5.8-8.17,16.92-5.45,19.85,3.64Z"/>
            <path class="cls-6" d="M96.74,96.78c5.72-1.27,3.98,8.35-.68,8.11-4.9-.25-2.36-7.44.68-8.11Z"/>
            <g>
              <path class="cls-21" d="M51.17,91.09c.17-.97,1.17-1.63,2.98-1.99-.27-.98.91-1.71,1.65-.99,4.98-1.78,13.61-.37,17.05,3.96,3.12,3.93,2.11,8.63-2.11,11.14-5.15,3.06-15.32,1.27-19.08-3.52-2.43-3.09-1.24-5.24-.49-8.61Z"/>
              <path class="cls-23" d="M60.69,90.19c2.01-.19,4.52.42,6.25,1.5,5.8,3.63-1.88,5.02-5.32,4.66-6.51-.68-6.62-5.63-.94-6.16Z"/>
            </g>
          </g>
        </g>
      </g>
    </g>
  </g>
</svg>