<?xml version="1.0" encoding="UTF-8"?>
<svg id="Calque_2" data-name="Calque 2" xmlns="http://www.w3.org/2000/svg" viewBox="0 0 147.88 163.57">
  <defs>
    <style>
      .cls-1 {
        fill: #f18859;
      }

      .cls-2 {
        fill: #873913;
      }

      .cls-3 {
        fill: #2e275a;
      }

      .cls-4 {
        fill: #aa1c3b;
      }

      .cls-5 {
        fill: #87519c;
      }

      .cls-6 {
        fill: #ffedc7;
      }

      .cls-7 {
        fill: #873813;
      }

      .cls-8 {
        fill: #f08219;
      }

      .cls-9 {
        fill: #fdcc61;
      }

      .cls-10 {
        fill: #f5a473;
      }

      .cls-11 {
        fill: #f7ad79;
      }

      .cls-12 {
        fill: #ea5352;
      }

      .cls-13 {
        fill: #f9b11f;
      }

      .cls-14 {
        fill: #f7af79;
      }

      .cls-15 {
        fill: #a81b43;
      }

      .cls-16 {
        fill: #65368c;
      }

      .cls-17 {
        fill: #86529c;
      }

      .cls-18 {
        fill: #ffedc8;
      }

      .cls-19 {
        fill: #653a8e;
      }

      .cls-20 {
        fill: #402a56;
      }

      .cls-21 {
        fill: #86509b;
      }

      .cls-22 {
        fill: #f9b32c;
      }

      .cls-23 {
        fill: #e13a20;
      }

      .cls-24 {
        fill: #f18b5c;
      }

      .cls-25 {
        fill: #854e9a;
      }

      .cls-26 {
        fill: #a61b46;
      }

      .cls-27 {
        fill: #2c275b;
      }

      .cls-28 {
        fill: #5b2b12;
      }

      .cls-29 {
        fill: #5d2c12;
      }

      .cls-30 {
        fill: #feedc9;
      }

      .cls-31 {
        fill: #f9b22c;
      }

      .cls-32 {
        fill: #ac1d37;
      }

      .cls-33 {
        fill: #ee7652;
      }

      .cls-34 {
        fill: #f1885b;
      }

      .cls-35 {
        fill: #a74618;
      }

      .cls-36 {
        fill: #653c8f;
      }

      .cls-37 {
        fill: #f08119;
      }

      .cls-38 {
        fill: #ef7c1a;
      }

      .cls-39 {
        fill: #f8ad2f;
      }

      .cls-40 {
        fill: #2c265a;
      }

      .cls-41 {
        fill: #8d3914;
      }

      .cls-42 {
        fill: #f6ac79;
      }

      .cls-43 {
        fill: #fdcd65;
      }

      .cls-44 {
        fill: #64378d;
      }

      .cls-45 {
        fill: #9d3d17;
      }

      .cls-46 {
        fill: #e13b55;
      }

      .cls-47 {
        fill: #ffefb9;
      }
    </style>
  </defs>
  <g id="Calque_1-2" data-name="Calque 1">
    <g>
      <path class="cls-23" d="M131.51,41.3c-2.84.38-7.61-2.32-9.93-3.97l-1.1.02c-8.03-6.02-14.62-13.34-19.68-21.92-1.84-3.66-6.7-5.73-3.81.02,4.43,8.79,11.91,17.89,20.06,23.27,3.48,9.91,6.24,20.23,8.25,30.96.95,3.16,1.36,6.28,1.23,9.35.64.63.56.72-.33.66-.5-.06-.95-.24-1.34-.55-4.68-6.61-9.84-12.67-15.82-18.17l-.7-1.48-.84.08c-1.52-1.73-3.22-3.15-5.61-3.33l-.5-.72c-2.04-.38-4-1.01-5.89-1.89-8.78-3.27-18.17-3.45-27.2-2.41l-.87-.1c-3.96-4.86-14.47-3.89-16.33,2.42.42.85.64,1.62.65,2.31l-.39.7c-6.9,2.6-12.98,7.49-17.3,13.66l-1.18.54c-.75.62-1.06.18-.66-.66-.05-.65-.1-1.33.13-1.95,2.59-6.93,6.71-14.82,10.3-21.35C53.23,27.58,69.34,5.9,92.87,4.25c17.89-1.26,30.69,9.67,36.87,25.8.76,1.99,3.09,9.14,2.19,10.71-.11.2-.26.38-.43.55Z"/>
      <path class="cls-46" d="M131.51,41.3c-.12-7.16-3.53-14.66-7.34-20.62C111.62,1.07,87.17.59,69.66,14.02c-17.79,13.65-28.64,35.98-37.42,56.08-.87.56-3.18-.73-3.64-1.66-.29-.11-.29-.22,0-.33,9.28-22.93,24.08-50.87,46.65-63.06,22.21-12,46.55-1.63,56.54,20.58,1.58,3.51,6.42,14.79-.28,15.68Z"/>
      <path class="cls-26" d="M121.58,37.33l-.59,1.74c4.27,11.82,6.99,24.11,9.86,36.32-.73.38-3.84,3.01-4.3,3.64-.69-3.05-1.19-6.16-1.88-9.21-1.87-8.2-3.94-17.16-6.22-25.22-.45-1.59-1.18-4.96-2.31-5.96-.83-.74-2.45-1.37-3.45-2.17-2.46-1.97-4.97-4.49-6.97-6.93s-10.08-13.72-10.26-16.25c-.15-2.19,1.56-2.8,3.14-1.46,2.92,2.5,6.05,8.76,8.77,12.08,3.61,4.4,9.6,10.11,14.22,13.42Z"/>
      <g>
        <path class="cls-35" d="M26.28,72.75c2.37-.51,5.33,2.41,6.8,4.26s3.76,5.68,2.79,7.98c1.63,2.06.98,5.82.33,8.3-1.55,5.92-6.05,11-11.63,13.41l.04.47c-.19,2.08-.15,4.16.12,6.26l-.45.36c-.86.86-3.7,1.13-4.63.33l-.66-6.29c-6.88.42-13.81-4.58-16.61-10.69-.37-.82-.37-1.58-.6-2.21l1.11.08c5.27,4.68,11.83,7.03,18.7,4.65,6.11-2.12,10.33-7.95,8.8-14.49-3.04-13.02-21.09-9.08-17.66,1.78.91,2.89,5.48,4.65,6.17.79-1.57-8.16,8.2-6.48,8.19.6,0,6.02-5.33,9.28-10.94,8.65-1.76-.2-5.43-.92-5.76-2.73-3.27-.38-5.26-4.7-5.69-7.73-.23-1.64-.47-4.69,1.05-5.51-.79-1.54.8-3.59,1.88-4.86,3.14-3.7,8.36-5.39,13.12-5.22,1.7.06,4.88.21,5.51,1.8Z"/>
        <path class="cls-14" d="M24.3,113.79c.3-.58.75-.58,1.32,0,.44-1.11,3.11.65,2.65,1.66,1.44-.55,3.38,2.46,3.98,3.75s1.61,4.5-.49,4.68c-3.64-1.31-8.37-1.93-11.91-.15-.9.45-.04,1.38.72,1.23,4.4-.69,10.95-1.48,12.98,3.8.69,1.8-.64,5.83-2.5,6.1-2.83-1.2-6.37-1.55-9.45-1.3-2.03.16-3.06,1.56-.44,1.71,3.44-.1,9.12-.21,10.72,3.64.36.87.76,1.91-.32,2.36-.25,1.58-2.89,3.07-4.3,3.64-.35,1.49-4.43,2.27-5.29.99-16.32-.36-18.24-29.01-2.32-31.78,1.64-.28,2.91-.45,4.63-.33Z"/>
        <path class="cls-39" d="M1.79,94.93c-.82-2.26-1.39-3.44-1.65-5.96l.8-.28c2.73,2.45,5.89,4.7,9.46,5.57,5.4,3.45,13.71,3.15,15.79-3.9.96-3.25-.79-7.76-4.62-7.29-4.34.52-.27,4.92-3.07,6.89s-6.04-.74-6.64-3.62c-2.26-10.81,14.36-14.44,18.64-3.08,3.44,9.13-3.77,17.06-12.7,17.92-6.41.62-11.39-2.17-16.01-6.25Z"/>
        <path class="cls-34" d="M34.88,127.04l.79.23c1.01,2.74.07,12.37-2.27,13.84l-.84-.17c-.3.19-.65.27-.99.33.5-3.08-2.86-4.95-5.5-5.26-1.82-.22-4.92.29-6.51-.44-1.41-.64-.2-2.41,1.24-2.6,2.28-.29,6.19.01,8.47.5.83.18,1.94,1.22,2.46.51.12-.16,1.5-3.56,1.49-3.77-.08-2.47-3.48-4.89-5.78-5.18-1.92-.24-7.11,1.12-7.96.35-2.58-2.34,2.62-3.2,3.98-3.31,3.33-.28,5.7.15,8.76,1.32.65-3.07-1.64-6.14-3.97-7.95-.6-.88.86-1.67,1.66-1.75,5.51-.56,7.44,7.85,4.3,11.58.57.66.79,1.25.66,1.76Z"/>
        <path class="cls-31" d="M28.6,68.12c-.04.09.04.24,0,.33.55,1.45-.83,3.92-2.32,4.3-7.39-2.99-18.14-.13-20.52,8.28-.25.17-.48.12-.75.04-.97-.3-3.91-1.51-3.22-2.68,4.63-9.99,16.66-13.92,26.8-10.26Z"/>
        <path class="cls-9" d="M5.77,81.02c-1.45,5.12.12,10.36,4.63,13.24-.33.64-1.1.23-1.59.1-1.86-.5-3.89-1.69-5.47-2.81-1.18-.83-2.02-1.92-3.2-2.59-.4-3.8.03-7.1,1.65-10.59.9,1.72,3.13.93,3.97,2.65Z"/>
        <path class="cls-45" d="M21.98,145.9c2.08.05,3.38-.22,5.29-.99l1.02,10.75c-.23,2.01-1.76,3.63-3.79,2.45-2.21-1.29-1.5-9.75-2.52-12.21Z"/>
        <path class="cls-43" d="M32.24,70.1c.12.08.37.44.66.66.83-.72,2.75,1,2.32,1.99h.88c1.56,1.43,3.52,4.16,3.75,6.29l.78.18c.78,2.47.87,5.1.88,7.66l-.67.43c-1.18,1.09-4.53-.77-4.96-2.32-1-5.59-4.3-10.1-9.6-12.25.86-1.36,1.71-2.81,2.32-4.3,1.04.11,2.75,1.04,3.64,1.66Z"/>
        <path class="cls-22" d="M40.84,87.31c.29.24.54.54.63.91.98,4.08-3.8,11.8-6.8,14.72-.29,1.02-.66,1.88-1.11,2.57-.42.03-.8-.23-1.14-.79-.68.63-6.33,3.14-6.83,2.98-.27-.08-.46-.32-.63-.54-.11.29-.22.29-.33,0-.06,0-1.13-.36-.99-.66,8.49-3.73,13.93-12.13,12.24-21.52,1.26.96,3.41,1.99,4.96,2.32Z"/>
        <path class="cls-20" d="M24.63,107.17c.11,0,.23.01.33,0,.65.88.88,2.08.71,3.62.37,1.19.36,2.19-.04,3-.03,0-.3.32-.51.29-.36-.05-.71-.28-.81-.29.06-1.89-.38-3.55-.33-5.48.02-.64-.34-1.33.66-1.14Z"/>
      </g>
      <g>
        <path class="cls-11" d="M130.85,106.84l-.62-1.1c.11-3.82-.55-7.58-1.43-11.28l.4-1.19v-.94c3.03-3.66,6.09-5.73,10.59-7.19,1.8-5.34-7.38.39-8.68,2.08-.9,1.15-1.9,1.81-2.98,2l-.26-3.9c-.16.02-.31.03-.45,0-.27-.07-1.93-4.9-1.81-5.14s.37-.37.6-.48c0-.04.3-.63.33-.66l.2-1.16c.26-.48,3.56-3.36,4.1-2.48,6.86-3.57,15.46.08,16.79,7.86,1.84,10.74-6.9,20.76-16.79,23.58Z"/>
        <path class="cls-21" d="M129.85,113.13c-.16.74.41.7.82.99,7.27,5.06,16.43,13.52,12.58,23.5-1.41,3.66-3.45,4.32-5.79,6.62l-.88.48c-2.67-6.42-7.36-10.48-13.87-12.51-.83-1.07-1.12-9.1-1.08-10.9l.6-.57.42-.66c3.36-.43,5.34-3.86,6.44-6.77l.75-.18Z"/>
        <path class="cls-18" d="M127.87,89.3c1.07.25,2.04,3,1.32,3.97,1.13,4.75,1.92,8.6,1.65,13.57-.11,2.07-.38,4.31-.99,6.29-.98,3.17-3.83,7.77-7.61,7.61-.48,1.21-3.95-.42-4.3-1.32l-.2-1.16c3.12-7.23,3.98-15.08,1.58-22.49.86-2.66.89-5.18.09-7.53-.84-.47-1.44-1-1.8-1.59-.79-.13-1.58-.29-2.37-.45.3-4.27-.1-8.48-1.18-12.63l.57-.82c1.38.55,2.5,1.54,3.36,2.97l9.2,11.82.67,1.76Z"/>
        <path class="cls-42" d="M133.16,147.23c-.32.72-1.13,4.19-.67,4.71.15.17,1.56-3.68,1.6-4.1l.72-.27c-.57-.94.62-1.4.99-.33.62.17,1.86,2.03,2.11,2.69,3.16,8.11-9.74,10.94-15.02,7.57-1.01-.3-1.36-2.86-.33-3.31-.69-.68-.71-1.5-.58-2.42-.04-2.38.2-5.83,1.24-7.84-.81-1.36-1.08-6.46-.37-7.59,1.13-1.81,7.72,3.45,8.76,4.8,1.1,1.42,3.08,4.76,1.54,6.1Z"/>
        <path class="cls-16" d="M122.24,120.75c.29,2.01.14,9.95,1.06,11.19.16.22,2.47.69,3.14,1,4.79,2.23,8,5.65,10.13,10.41.22.49.05,1.08.9.91-.83.81-1.28,1.9-1.65,2.98-.55-.14-.94.33-.99.33-.19,1.04-1.67.65-1.65-.33.15-5.16-5.17-9.66-9.93-10.59-.06,2.42.08,4.86,0,7.28-1.01.44-3.29,1.29-4.3.66l-.63-1.09c.19-2.45.31-4.89.31-7.35,0-3.71-.49-10.09-2.99-12.75-.47-1.08,1.15-3.85,2.32-3.97,1.41.04,2.94,1.27,4.3,1.32Z"/>
        <path class="cls-5" d="M118.6,155.5c.26.08.63.21.64.41.04.84-.22,7-.5,7.22-10.24.05-20.43.15-30.59.31-.33,0-.62-.33-.66-.33.5-.92.87-1.55.99-2.65l1.02-.47c9.32-.37,17.9-2.38,26.91-4.52.71-.17,1.46-.08,2.18.02Z"/>
        <path class="cls-17" d="M63.01,160.8c.11.85.58,1.87,1.32,2.32-5.62-.02-11.47.5-17.21.33-3.1-.26-6.26-.29-9.48-.12-.72-.07-1.49-7.05-.45-8.16l2.06.07c7.33,2.8,15.1,3.97,22.8,5.04l.95.51Z"/>
        <path class="cls-44" d="M41.17,124.72l.73-.12,4.12,4.7-.22.72c0,.78-.82,1.24-2.49,1.37-.35,1.58-1.14,1.7-2.32.75-1.85,3.55-2.94,7.44-3.27,11.66l-.86.78c-.74.83-3.53.16-3.64-.99,0-.52-.5-2.01-.66-2.65,2.68-1.72,3.55-11.27,2.32-13.9l.51-.63c1.8-.17,3.48-.85,5.04-2.04l.73.35Z"/>
        <path class="cls-19" d="M122.57,154.18c0,1.25.3,2.25.33,3.31s.33,5.63-.54,5.91l-34.2.05c.06,0,.52-.35,1.12-.35,9.66-.09,19.34.11,28.99.03l.33-7.61c-.42-.49-.23-.68.33-.33.34-1.22,2.75-1.93,3.64-.99Z"/>
        <path class="cls-28" d="M36.87,144.58c.47-.46.64-.26.33.33,1.12,2.96.96,7.22,0,10.26-1.35.56-3.46-.28-3.97-1.66-.1-3.29.03-6.71,0-9.93,1.12.45,2.56.63,3.64.99Z"/>
        <path class="cls-36" d="M37.2,155.17c.09,2.65.31,5.3.68,7.93,2.81.12,5.64-.09,8.45,0,.43.01.76.34.8.34-2.05-.38-12.58.56-13.59-.14-.59-.41-.27-8.33-.31-9.79,1.28.63,2.64,1.13,3.97,1.66Z"/>
        <path class="cls-8" d="M101.4,55.54c3.69.35,4.71,1.66,6.95,3.97,2.16,2.05.05,5.86-2.65,5.3-.51,1.05-1.63,1.57-3.37,1.55-3.67-.07-7.29.18-10.87.74-6.78-.68-2.15-9.89,2.33-9.9-.18-1.2,2.49-1.72,3.57-1.91,1.53-.26,2.53-.34,4.04.25Z"/>
        <path class="cls-37" d="M68.31,51.23c1.17-.26,2.32,2.67,1.32,3.31,1.22.31,1.01,1.63.81,2.62-1.01,4.94-5.72,2.92-8.79,1.31-1.36-.1-2.23-.53-2.61-1.27-2.43.32-4.77.13-7.01-.59l-.27-.74c-3.99-3.16,2.11-7.52,5.28-8.12,4.02-.76,8.91-.21,11.27,3.49Z"/>
        <path class="cls-15" d="M126.21,79.7c-.06.56,1.41,4.28,1.65,5.63l.22,3.49c.32.21.22.37-.22.48-4.76-5.27-8.5-11.26-13.24-16.55l-1.09-.22c-2.21-2.5-4.49-5-7.39-6.71l-.46-1.01c2.35-1.04,3.63-2.66,2.65-5.3,2.84,2.94,6.07,5.67,8.77,8.6,3.33,3.6,5.85,7.92,9.1,11.59Z"/>
        <path class="cls-32" d="M101.4,55.54c-2.06-.2-5.79.69-7.61,1.66l-1.41.14c-6.82-2.6-14.24-2.87-21.44-2.25l-1.3-.54c-.25-1.05-.74-2.4-1.32-3.31.34-.62.92-.55,1.5-.65,7.24-1.31,16.2-.51,23.24,1.56,2.75.81,5.86,2.04,8.35,3.4Z"/>
        <path class="cls-4" d="M51.76,55.87c.46.01,1.46.57,2.19.63,2.34.18,2.89.15,5.09.7l-1.06.97c-4.85,1.39-9.32,3.83-13.41,6.76l-1.42.21c-2.31,2.4-4.62,4.83-6.91,7.27l-1.03.34c-.58-.61-1.62-1.45-2.32-1.99,2.3-3.39,5.22-6.74,8.44-9.26,1.79-1.4,8.41-5.7,10.42-5.63Z"/>
        <path class="cls-6" d="M33.56,105.52l.85,1.17c.93,5.95,3.14,11.65,6.57,16.6l.19,1.42c-2.03,1.11-3.77,2.61-6.29,2.32-.12-.25-1.35-.74-1.31-1.82.02-.56,1.56-2.78,1.64-4.64.15-3.28-3.65-8.65-6.95-5.12-.56-.43-2.07-1.52-2.65-1.66-.77-2.18-.72-4.33-.66-6.62.76-.09,3.87-1.31,4.75-1.7,1.26-.57,2.48-1.17,3.36-2.27-.03.77.41,1.74.49,2.32Z"/>
        <path class="cls-24" d="M127.87,85.33c.22,1.2.4,2.36.49,3.64,2.26-2.44,7.7-7.26,11.24-6.62,1.26.23,1.45,1.67,1.11,2.75-.39,1.25-5.87,2.21-6.99,3.6l-4.52,4.58c-.3-1.24-1.17-2.81-1.32-3.97-.16-1.22.11-2.71,0-3.97Z"/>
        <path class="cls-25" d="M118.93,144.58c-.22.23-.44.46-.7.65s-.49.36-.75.43c-7.68,2.17-19.45,5.36-27.28,4.87-.62-.04-1.19-.34-1.71-.66-.43-2.83-2.6-3.47-5.11-3.66-3.84-.28-13.6-.5-17.14.09-2.01.34-2.97,1.6-3.22,3.56-.34.15-.68.29-1.03.38s-.69.17-1.02.15c-7.15-.46-15.23-2.01-22.04-4.24-.32-.1-.6-.3-.89-.51s-.56-.47-.82-.73c-.11-.04-.23-.3-.33-.33.68-2.6.78-5.35,1.49-7.95.53-1.95,1.52-3.72,2.16-5.62l1.98,1.32c-.14-2.47,1.8-1.38,3.31-2.32,5.49,5.57,16.7,12.18,24.07,14.82s10.84-.11,17.31-2.39c11.9-4.2,21.18-7.9,28.44-19.05,1-.1,1.69.62,2.01,1.47.82,2.16,1.55,8.8,1.65,11.26.11,2.91-.29,5.62-.35,8.46Z"/>
        <path class="cls-7" d="M118.93,144.58c.98,3.27,1.08,7.35,0,10.59-.11.04-.23.3-.33.33-9.56,3.07-20.08,4.75-30.11,4.97.24-2.16.31-8.54,0-10.59,10.53.12,20.43-2.56,30.44-5.3Z"/>
        <path class="cls-2" d="M63.01,149.87c-.28,2.19-.28,8.73,0,10.92-8.84-.58-17.59-2.39-25.81-5.63-.12-3.41.09-6.85,0-10.26,8.22,2.73,17.16,4.47,25.81,4.97Z"/>
        <g>
          <path class="cls-13" d="M88.49,149.87l.71.4c.24,3.24.18,6.53-.01,9.76l-.7.43c1.15.46.1,2.84-.99,2.65-7.69.06-15.52.03-23.16,0-1.35-.15-2.41-1.25-1.32-2.32l-.69-.25c-.25-3.39-.24-6.85-.02-10.24l.71-.43c-1.46-1.44,1.1-3.96,2.86-4.17,3.89-.16,7.82-.12,11.79.14,2.86-.38,8.48-1.02,10.5,1.58.56.71,1.33,1.91.33,2.45Z"/>
          <path class="cls-41" d="M69.46,160.47c-.11-.03-.59-.51-.66-.67-.28-.59-.32-6.56-.16-7.43.08-.42.25-.81.65-1,.64-.31,12.25-.3,12.9,0,.16.07.67.6.67.66v7.94s-.46.5-.5.5h-12.91Z"/>
        </g>
        <path class="cls-29" d="M123.24,143.92c-.12,3.34-.65,6.94-.66,10.26-1.24.18-2.46.6-3.64.99.05-3.52-.07-7.07,0-10.59,1.29-.35,2.98-1.34,4.3-.66Z"/>
        <path class="cls-33" d="M134.82,147.56c.01.6-2.03,6.69-2.98,5.63.1-1.4-.61-5.71,1.32-5.96.08-.01,1.07.32,1.65.33Z"/>
        <path class="cls-30" d="M39.85,79.04c-.59-1.35-3.52-5.11-4.63-6.29,1.95-3.09,5.03-5.45,7.94-7.61-2.12,4.32-3.26,9.08-3.31,13.9Z"/>
        <g>
          <path class="cls-38" d="M62.02,87.31l.67.37c2.77,11.44,23.24,11.88,26.44.4.34-.9.44-.93,1.34-.78l.04-.77c5.39-2.12,10.88-1.14,16.37.12,2.98-.16,5.95-.42,8.93-.78.29.45.89.7,1.8.76,3.4.46,3.16,3.39,2.97,6.12-.07.96-.62,2.15-.6,3,.03,1.14,1.04,3.5,1.23,4.99.76,5.97-.68,13.24-3.27,18.66-.41.87-1.75,3.11-2.32,3.97.02.27.03.54,0,.8-.27,2.12-6.03,7.47-7.98,9.03-4.29,3.42-8.93,5.43-13.93,7.53-4.69,1.96-10.07,4.05-14.94,5.01-8.25,1.02-13.76-1.81-20.8-5.97-4.27-2.52-8.41-5.32-12.02-8.71l-.14-1.07c-1.23-1.24-3.65-3.93-4.63-5.3-4.3-5.96-6.58-11.87-7.61-19.2-.6-3,2.13-4.37,3.71-6.71,2.49-3.68,3.47-7.03,3.57-11.49l.79-.53c3.65.18,7.28-.57,10.9-2.23l1.22.44c.38-.77,1.2-1,2.46-.67,1.79.16,5.52,1.17,5.81,2.99Z"/>
          <path class="cls-40" d="M100.4,107.17l-.75.55c-7.46-1.04-18.17,1.11-19.63,9.79l-.47.58c-4.62-1.94-11.12-8.25-7.28-13.4,2.57-3.44,6.16-1.51,9.42-1.47,2.39.03,5.94-.84,8.12-1.84,2.65-1.21,5.01-4.28,8.08-3.8,3.7.58,2.93,6.95,2.5,9.58Z"/>
          <path class="cls-12" d="M100.4,107.17c-1.52,9.43-12.4,14.48-20.85,10.92-.46-.74-.02-1.85.24-2.58,2.76-7.71,13.46-9.63,20.61-8.35Z"/>
        </g>
        <g>
          <path class="cls-42" d="M93.79,57.19c-2.51,1.33-6.22,4.78-4.79,7.94,1.07,2.39,4.8.77,6.62.67,3.52-.19,6.7.5,10.09-1,3.65,1.89,6.27,4.96,8.93,7.94.19,2.3,1.13,4.49,1.32,6.79.09,1.08-.24,6.55,0,6.78.14.13,1.44-.28,1.66.33-3.57-.48-7.21.9-10.77.67-2.29-.15-4.63-1.15-6.94-1.33s-7.43.13-9.43,1.32c-.53.49-.84.74-1.25.06-1.94-8.15-12.04-10.15-19.1-7.93l-.83-.41-.21-.93c6.35-11.42-7.96-20.34-16.9-11.46-5.29,5.26-3.68,12.62,1.44,17.36l.11.98c-4.75.7-6.97,3.56-12.91,2.32.05-2.22-.11-6.26-.99-8.28-1.13-4.43.36-10.4,3.31-13.9,4.77-3.56,10.05-6.51,15.88-7.94.94.23,1.89.33,2.83.65,2.54.87,5.92,3.73,7.6.02.67-1.49.51-1.86.16-3.31,8.08-.81,16.59-.61,24.16,2.65Z"/>
          <path class="cls-3" d="M89.27,75.52c4.28-4.61,14.06-4.47,17.37,1.09.94,1.59.57,4.54-1.41,4.42-1.56-.09-3.38-3.62-6.65-3.98-4.81-.53-4.34,1.35-7.55,3.04-3.52,1.86-4.16-2.01-1.77-4.58Z"/>
        </g>
        <g>
          <path class="cls-1" d="M69.3,79.04c7.05-2.65,17.85-.66,20.36,7.29.17.54-.08,1.18.82.99-.88.52-1.12,2.75-2.04,4.08-4.85,6.97-16.03,7.33-22.55,2.48-1.86-1.38-3.9-4.16-3.86-6.56-1.33-1.3.54-3.77,1.56-4.98,1.37-1.61,3.15-2.87,5.06-3.75l.66.45Z"/>
          <path class="cls-10" d="M74.17,80.77c2.08-.35,9.19.44,8.22,3.57s-7.85,2.8-10.35,1.7c-3.85-1.7-.7-4.8,2.12-5.28Z"/>
        </g>
        <g>
          <path class="cls-47" d="M69.3,79.04c-3.09,1.16-7.22,4.75-7.28,8.28-2.26-1.62-5.48-2.73-8.27-2.32-6.34-5.37-7.9-14.35-.82-19.85,10.27-7.99,23.62,2.74,16.37,13.89Z"/>
          <path class="cls-27" d="M62.61,69.52c6.34-.16,7.06,10.77.55,11.81-8.31,1.33-8.28-11.62-.55-11.81Z"/>
        </g>
      </g>
    </g>
  </g>
</svg>