<?xml version="1.0" encoding="UTF-8"?>
<svg id="Calque_2" data-name="Calque 2" xmlns="http://www.w3.org/2000/svg" viewBox="0 0 155.53 163.9">
  <defs>
    <style>
      .cls-1 {
        fill: #f9b31f;
      }

      .cls-2 {
        fill: #3d7fc1;
      }

      .cls-3 {
        fill: #f6ab79;
      }

      .cls-4 {
        fill: #bd2731;
      }

      .cls-5 {
        fill: #ae1b3e;
      }

      .cls-6 {
        fill: #feefb9;
      }

      .cls-7 {
        fill: #3d7ec1;
      }

      .cls-8 {
        fill: #4383c4;
      }

      .cls-9 {
        fill: #f6ac7a;
      }

      .cls-10 {
        fill: #2d275a;
      }

      .cls-11 {
        fill: #f1895d;
      }

      .cls-12 {
        fill: #f28e60;
      }

      .cls-13 {
        fill: #e13a21;
      }

      .cls-14 {
        fill: #f1895b;
      }

      .cls-15 {
        fill: #a6231f;
      }

      .cls-16 {
        fill: #e03a22;
      }

      .cls-17 {
        fill: #ae1e3c;
      }

      .cls-18 {
        fill: #a62221;
      }

      .cls-19 {
        fill: #5294cf;
      }

      .cls-20 {
        fill: #ab1b3d;
      }

      .cls-21 {
        fill: #eb5750;
      }

      .cls-22 {
        fill: #f5a674;
      }

      .cls-23 {
        fill: #f6ab7a;
      }

      .cls-24 {
        fill: #518fcc;
      }

      .cls-25 {
        fill: #ce2a33;
      }

      .cls-26 {
        fill: #ea5038;
      }

      .cls-27 {
        fill: #8a3714;
      }

      .cls-28 {
        fill: #4988c7;
      }

      .cls-29 {
        fill: #ce1f42;
      }

      .cls-30 {
        fill: #3f82c4;
      }

      .cls-31 {
        fill: #2d275b;
      }

      .cls-32 {
        fill: #6e3020;
      }

      .cls-33 {
        fill: #f39466;
      }

      .cls-34 {
        fill: #eb5850;
      }

      .cls-35 {
        fill: #da3823;
      }

      .cls-36 {
        fill: #e94666;
      }

      .cls-37 {
        fill: #f1895c;
      }

      .cls-38 {
        fill: #d93723;
      }

      .cls-39 {
        fill: #bd2830;
      }
    </style>
  </defs>
  <g id="Calque_1-2" data-name="Calque 1">
    <g>
      <path class="cls-26" d="M135.39,69.23c-.78.77-3.27.49-3.97-.33l-1.14-1.88c-3.94-14.57-11.32-28.85-20.44-40.74C91.18,1.95,67.24-1.51,46.8,22.54c-11.34,13.34-16.84,28.47-22.58,45.09-.29.84-.82,1.56-1.35,2.26-.77.76-3.32.53-3.97-.33,4.2-18.22,12.43-37.41,24.5-51.79C68.18-11.77,96.57-1.47,116.27,26.62c8.86,12.63,16.18,27.37,19.12,42.61Z"/>
      <path class="cls-18" d="M128.11,69.89c-.73.33-1.6,1.22-2.32,1.66-.11-.22-.54-.44-.66-.66l-1.04-.5c-1.83-3.29-4.14-6.26-6.74-8.97l-.16-1.13-1.32-.44c-7.63-8.08-17.77-11.65-28.64-12.65l-1.15-.8-.76.58-5.51-.55-.68-.68c-1.81.96-5.1,1.22-6.95.33-18.36,1.35-35.38,10.03-44.01,26.81-.97-.02-1.69-1.27-2.32-1.66-.06-.29-.1-.58-.1-.88.03-2.97,6.43-10.89,8.76-13.27,23.54-24.07,79.18-22.35,93.71,11.58l-.12,1.25Z"/>
      <g>
        <path class="cls-13" d="M131.42,68.9c-.56.07-2.75.74-3.31.99-1.1-2.22-2.17-4.47-3.56-6.53-8.02-11.84-18.38-18.09-32.44-20.51-25.4-4.37-55.3,2.81-66.24,28.36-.75-.46-2.14-1.12-2.98-1.32,2.68-9.41,5.97-18.48,10.31-27.26C42.58,23.6,59.82.55,84.1,6.5c15.87,3.88,26.22,18.05,34.22,31.31,5.96,9.89,10.45,19.77,13.1,31.09Z"/>
        <path class="cls-15" d="M77.74,25.62c8.77-.04,18.79,2.22,26.77,5.81,1.91.86,8.37,3.25,6.69,5.82-1.5,2.29-6.4-1.34-8.34-2.18-16.44-7.09-33.88-7.26-50.31.11-1.6.72-5.56,3.28-6.74,3.52-1.79.36-3.18-.82-2.6-2.59s9.23-5.54,11.28-6.28c7-2.52,15.82-4.17,23.26-4.21Z"/>
      </g>
      <g>
        <path class="cls-30" d="M129.1,142.38c-.61-.8.69-2.6,1.65-2.32.98-.72,2.21-1.1,3.67-1.14,1.55-.63,2.97-.8,4.27-.51l.73-.95c2.32-.81,4.79-1.98,5.75-4.4l.79-.27c10.91,3.23,14.51,23.71-.18,23.18-8.7-.31-15.72-4.34-16.7-13.58Z"/>
        <path class="cls-30" d="M12.62,139.4c.74-.32,1.58-.17,2.52.46,2,.55,4.06.84,6.17.88l1.24.98c.99.44,1.92,2.09,2.65,2.65-1.12,4.79-3.87,9.41-8.92,10.77-1.71.46-3.35.29-4.98.48l-1.19-.2c-.81-.78,2.89-10.01,3.61-11.6-2.01-.75-3.18.22-3.51,2.9-2.06,5.45-9.5,4.7-5.64-1.99,1.42-2,2.67-4.08,3.74-6.24-1.39-1.17-1.5-2.08-.32-2.73,0-.11,0-.22,0-.33.85.18,1.65.8,2.43,1.88,1.22.58,1.95,1.28,2.21,2.09Z"/>
        <path class="cls-19" d="M7.99,135.76c0,.15-.38.43-.2,1,.21.65,1,1.07,1.14,1.56.33,1.18-3.05,5.17-3.77,6.7-.65,1.39-2.12,4.21.1,4.59,1.64.28,2.97-.73,3.79-2.03,1.76-2.82.38-5.82,5.56-4.2-.23,1.13-.94,2.05-1.33,3.13-.73,2.01-2.26,6.12-2.59,8.05-.13.75.04.72.61,1.06-3.89.47-6.92,2.04-9.74-2.01-3.92-5.61.05-15.8,6.43-17.85Z"/>
        <path class="cls-38" d="M145.98,132.78c-1.03,3.36-4.27,4.61-7.28,5.63l-.55-.52c1.04-2.62,1.34-5.1.89-7.43,1.69-.65,2.89-1.9,3.97-3.31,2.41.84,3.75,3.11,2.98,5.63Z"/>
        <path class="cls-35" d="M11.63,128.81c.27.46,2.25,2.47,2.65,2.65l.27.82c-.98,2.3-1.29,4.78-.93,7.43l-1-.3c-2.29-1.13-3.17-1.76-4.63-3.97.06-3.41.55-4.83,3.64-6.62Z"/>
        <path class="cls-4" d="M18.58,132.12c.48,3.53,1.88,6.74,3.97,9.6-1.3-.58-4.49-.41-6.3-.82-1.33-.3-2.43-.91-3.63-1.5,1.16.11.4-.26.36-.85-.17-2.68-.26-4.73,1.3-7.1.85.39,3.37.9,4.3.66Z"/>
        <path class="cls-39" d="M139.03,130.46c1.13.67,1.05,1.29,1.01,2.49l-1.34,5.45c-2.61.88-5.14,1.52-7.94,1.66,1.43-2.29,2.82-5.91,2.98-8.61,1.58.19,2.97-.58,4.3-.99.26-.08.76.09.99,0Z"/>
        <g>
          <path class="cls-9" d="M132.41,125.5c.62,2.35,1.49,3.11,1.32,5.96l.61.65c.16,1.63-1.78,7.42-3.59,7.96-.29.46-1.36,1.99-1.65,2.32-1.99,2.16-5.43,4.19-8.27,4.97-.14.07-.29.12-.43.12-.31.02-3.52-4.16-3.86-4.71l.32-.71-.79-.24c-.5-2.04-.96-4.09-1.4-6.15l.53-.55c-1.05-.07-1.45-2.03-.66-2.65l.04-.73c5.74-2.23,11.48-4.47,17.22-6.7l.61.47Z"/>
          <path class="cls-23" d="M37.77,132.12c.78.66.38,2.21-.66,2.32.37,1.11.22,2.37-.44,3.79-.08,1.36-.49,2.41-1.22,3.16v.67c-1.4,1.48-2.58,3.14-3.55,4.96h-.76c-1.82-.41-4.5-1.53-5.96-2.66-1.07.41-2.59-1.65-2.65-2.65-2.15-1-4.5-6.29-4.47-8.52,0-.41.25-.77.5-1.08-.5-3.7.07-3.46.99-6.62l.51-.52c5.84,2.13,11.69,4.25,17.54,6.38l.15.76Z"/>
          <path class="cls-17" d="M38.43,143.04l-.02.99c-2.87,5.84-5.36,11.84-7.46,18l-1.13,1.53.52-.66h90.4l.41.66-.61-.67c-1.72-6.68-4.06-13.08-7-19.19-.15-1,2.74-2.79,3.31-1.66.17.41,3.3,3.93,3.97,5.3,1.41,2.88,4.31,10.2,4.82,13.22.15.87.63,3.33-.68,3.33H25.03c-.23,0-.38-.4-.37-.68.04-1.06,1.11-3.94,1.52-5.12,1.17-3.33,3.27-8,4.97-11.08.57-1.04,3.3-5.66,4.3-5.63.69-1.14,3.2.53,2.98,1.66Z"/>
          <path class="cls-21" d="M32.81,110.6c.39.48,1.45,1.44,1.99,1.99l-.53.99c-4,1.85-6.88,4.92-9.51,8.27,4.45,2.16,9.21,3.75,13.95,5.31l.73.98c.69.82-.57,3.9-1.65,3.97l-18.2-6.62c.27-.93.78-1.95.93-2.55.21-.87-.09-1.71.31-2.66.18-.43,2.9-3.72,3.39-4.22,2.28-2.31,5.54-4.38,8.6-5.46Z"/>
          <path class="cls-34" d="M119.5,111.27c.17-.02.51-.03.66,0,.56-1.02,3.31.53,3.31,1.66,2.72,1.72,8.15,7.4,8.86,10.51.16.71-.05,1.57.08,2.07l-17.87,6.95c-1.08.05-2.29-3.11-1.65-3.97l.03-.73,14.08-5.81c.72-.94-7.73-8.01-9.48-7.98l-.32-.71c.74-.66,1.09-1.82,2.32-1.99Z"/>
          <path class="cls-32" d="M116.86,142.05c-1.24.23-2.17,1.22-3.31,1.66l-.42.86c-7.41,2.2-15.6,3.96-23.43,4.24-.57.02-1.11-.23-1.62-.46l-.63-.69v-6.56s.63-.69.63-.69l1.06-.5c6.81-.66,13.54-1.83,20.17-3.51l2.26.04c.26-1.08,2.71-1.84,3.64-1.32.58,1.94,1.07,5.56,1.65,6.95Z"/>
          <path class="cls-20" d="M108.91,123.51c1-1.35,2.73,1.32,3.32,2.37.85,1.04,1.07,1.9.65,2.6.49,1,1.28,2.92,1.65,3.97.3.86.42,1.83.66,2.65-1.13.66-2.4.95-3.64,1.32l-.85-.61c-1.21-3.19-2.54-6.32-3.99-9.37l.54-.61c-1.58-.76.52-3.78,1.65-2.32Z"/>
          <path class="cls-32" d="M41.08,136.09l1.97-.07c6.66,1.83,13.43,3.12,20.3,3.86l.89.51.62.6v6.75s-.62.6-.62.6c-.24.14-.48.27-.73.36s-.49.17-.71.14c-2.61-.25-5.22-.58-7.81-.96-3.17-.47-14.35-2.28-16.08-4.16-.18-.2-.33-.43-.47-.67-.72-.31-1.95-1.62-2.98-1.66.18-2.4.95-4.68,1.65-6.95,1.05-.41,3.65.54,3.97,1.66Z"/>
          <path class="cls-5" d="M43.07,123.84c.88-1.54,3.27.41,2.32,1.66l.53.46c-.4,1.2-3.63,9.44-3.99,9.83-.22.24-.39.39-.84.31-1.34-.45-2.77-.87-3.97-1.66.23-.75.4-1.58.66-2.32.42-1.16,1.12-2.89,1.65-3.97-.14-.09-.26-.18-.34-.31-.36-.55,2.81-5.76,3.98-4Z"/>
          <path class="cls-13" d="M64.24,148.34l.7.47c.16,3.63,1.36,4.18,4.65,4.52,4.01.42,9.49.43,13.51.04,3.33-.32,4.2-1.24,4.29-4.68l.68-.35c4.12-.58,8.2-.72,12.3-1.43,3.77-.65,9.67-1.88,13.18-3.21.8-.03.87.44,1.16.99,3.09,5.89,4.96,12.4,6.45,18.87H29.83c1.95-7.2,5.17-13.95,8.6-20.52,7.8,3.32,17.43,4.38,25.81,5.3Z"/>
          <path class="cls-25" d="M109.91,118.88c.58.33.51,1.04-.23,2.13.2,1.29-.05,2.13-.76,2.5-1.15.01-1.77,1.26-1.65,2.32-19.37,9-42.68,8.58-61.83.49l-.05-.82c-.52-.48-.4-1.81-2.32-1.66-1.41-.18-1.61-5.02,0-4.97,18.3,10.74,48.61,10.94,66.84,0Z"/>
          <path class="cls-29" d="M43.07,118.88c-.69,1.38-.37,3.48,0,4.97-1.56.13-3,3.02-3.64,4.3-5.07-1.99-10.62-3.07-15.2-6.16,2.29-4.25,6.24-7.41,10.57-9.4,2.14,2.14,5.66,4.75,8.27,6.29Z"/>
          <path class="cls-29" d="M117.19,113.25c2.54.05,10.97,6.97,10.61,9.07l-14.92,6.16c-.6-1.24-2.51-4.98-3.97-4.97l.12-2.66.87-1.98c2.49-1.49,5.11-3.69,7.28-5.63Z"/>
          <path class="cls-16" d="M107.26,125.83c.12,1.12,2.22,4.87,2.8,6.3s1.14,2.82,1.5,4.29c-7.64,2.28-15.52,3.55-23.49,3.97l-.69-.31c.08-.96-.9-3.22-1.95-3.28-5.62-.29-12.05-.36-17.66-.07-1.97.1-2.66,1.54-2.82,3.33l-.7.33c-7.72-.54-15.8-1.85-23.16-4.3l4.3-10.59c.97.9,10.37,3.7,12.24,4.14,17.01,4.04,32.15,2.44,48.31-3.67.46-.18.82-.56,1.33-.14Z"/>
          <g>
            <path class="cls-1" d="M88.07,140.39c.19,2.32.12,5.59,0,7.94-.13,2.56-.27,4.85-3.29,5.48s-12.19.4-15.42.16c-4.12-.31-4.88-1.68-5.11-5.64-.13-2.26-.21-5.73,0-7.94.22-2.38.87-4.08,3.46-4.32,5.62-.52,12.1.36,17.81.09,1.94.68,2.4,2.38,2.55,4.23Z"/>
            <path class="cls-27" d="M82.44,140.73v7.78s-.46.5-.5.5h-11.58s-.5-.46-.5-.5v-7.28s.46-.5.5-.5h12.08Z"/>
          </g>
        </g>
        <g>
          <path class="cls-8" d="M72.18,46.06c.79,2.07-1.4,5.17-2.7,6.98-6.67,9.26-17.48,13.24-28.57,14.23-.6,1.06-1.43,1.93-2.48,2.62l-.12.87c-12.52,9.77-16.55,25.4-5.64,38.63l.13,1.22c-.48.88-1.36,1.51-2.65,1.9-4.16,2.44-9.12,6.21-9.26,11.35-.18.68-.53,1.83-1.32,1.65l.51.62c-.86,1.77-1.16,3.59-.9,5.43l-.59.57c-.1,1.32-4.32.62-4.3-.66-.78.87-3.41-1.77-2.65-2.65-1.64-2.75-2-7.86-.14-10.57.82-1.19,4.28-3.75,4.38-4.87.04-.48-1.32-3.01-1.57-3.94-.82-3.14-.6-7.07.4-10.15.59-1.8,1.98-3.6,2.23-5.55.62-.72,1.18-.64,1.32.33l.56-.48,4.49,1.76c-.73-4.27-.79-8.41.92-12.45-.35-1.85.08-3.2,1.31-4.05l-.43-.76c.17-1.14,1.9-5.07,3.08-5.2.54-3.71,3.76-7.47,6.32-10.32,6.65-7.39,15.46-12.34,25-14.99,2.44-.68,9.96-2.55,11.9-1.89.28.09.54.23.79.38Z"/>
          <path class="cls-3" d="M135.39,69.23c12.8,2.83,10.67,20.39.66,24.83.19.73-.25.84-1.32.33.11.26.16.64-.04.72-.94.36-5.96,2.15-6.34,1.14,1.37-8.34.89-16.48-2.94-23.99l.39-.71c-.33-.96,1.42-2.31,2.32-1.66-.22-1.1,2.8-1.98,3.31-.99,1.34-.17,2.66.04,3.97.33Z"/>
          <path class="cls-7" d="M113.88,65.92c-.47-1.87,1.71-.53,2.23.66.07-.98,1.01-2.74,2.09-2.44.29.08,4.44,3.42,4.23,4.11-.38,2.25.77,2.51,2.71,2.64.85-.4,1.06-.22.66.66,1.09,2.13,2.62,6.26,3.15,8.6,1.21,5.31.97,10.6-.17,15.9.22.22,5.26-1.38,5.95-1.65,1.74-.53,2.32,3.65.9,4.34-3.08.69-7.23,2.7-7.1,6.28-.93,1.66-1.75,3.36-2.45,5.1l5.71,3.74c.71-1.64,3.01-5.56,4.91-3.9-.03.8,1.53,1.48,2.32,1.99.67.76.68,1.18.36,2.11-.65,1.9-4.19,4.66-5.98,5.58l5.43,9.5c.35.78,0,1.21-.79,1.34,0,1.23-3.92,2.38-4.3.99l-.64-.51c-.08-1.65-.48-3.26-1.2-4.85l.52-.6c-.65-.13-.88-.71-.69-1.72-1.38-4.1-4.98-7.45-8.3-10.1l.06-.76-.54-.61c-.43-2.23-1.29-1.96-2.77-1.04-.09.86-.37.8-.66,0l-.26-.94c8.43-10.84,11.39-22.96,2.03-34.39l-6.65-7.18-.09-1.18c-.85-.47-1.64-.93-.66-1.66Z"/>
          <path class="cls-9" d="M18.91,69.56c1.26-.13,2.74.03,3.97.33.59-.99,3.08.19,2.98,1.32.84-.63,2.09.83,2.32,1.66-.88,1.71-2.04,4.16-2.65,5.96l-.82.21c-2.09-1.4-7.22-4.67-8.13-.63,1.79-.13,7.01,1.31,7.77,2.99.29.63-.78,3.93-1.14,4.65-1.66,2.37-3.24,4.89-4.19,7.66l-.77.35c-.3-.12-.8-.09-1.32-.33-10.38-4.7-9.56-23.01,1.99-24.16Z"/>
          <path class="cls-28" d="M143,127.15c.46,1.49-2.59,4.14-3.97,3.31-.15.95-.71.9-.99,0l.33-.82-5.95-10.43c1.84-.17,5.92-4.12,6.46-5.65.25-.72-.2-1.2.16-1.63,2.2,1.42,3.82,2.12,5.23,4.53,2.32,3.96,1.38,7.23-1.26,10.7Z"/>
          <path class="cls-28" d="M136.05,94.05c1.61,2.91,2.68,13.68.66,15.89-.2.22-.99.1-1.43.36-1.37.81-2.97,3.35-3.21,4.93-.55-1.21-6.55-4.45-6.64-4.86-.24-1.16,2.06-4.37,2.52-5.72.29-.86-.04-1.61.47-2.51.12-.22,3.53-2.89,3.87-3.08.59-.33,3.27-.94,3.39-1.07.13-.15.39-3.92-.95-3.6.54-.21,1.18-.27,1.32-.33Z"/>
          <path class="cls-12" d="M25.53,78.83c-1.88,5.53-2.78,11.46-1.32,17.21-.55.48-5.07-1.61-5.96-1.98.42-2.02,1.87-4.33,2.92-6.18s3.05-3.66,2.93-5.54c-.09-1.45-4.12-2.8-5.44-3.09-1.57-.34-3.64.51-2.32-2.16,1.57-3.15,7.27.22,9.18,1.74Z"/>
          <path class="cls-2" d="M86.08,46.39l.77.37c4.87,10.21,18.37,12.76,28.8,12.88l1.54.66c3.41,3.54,5.55,6.23,7.94,10.59-.61,2.23-1.31.45-1.55.33-.44-.23-1.14-.25-1.44-.49-.64-.53-.1-1.93-.5-2.81-.6-1.34-3.05-1.73-3.63-3.31-1.11.79-1.33,1.62-1.16,2.97-1.11.14-1.28-.77-1.8-1.32-.25-.27-.9-1.1-1.17-.33-.11-.17-.49-.56-.66-.66-1.53-.32-3.1-.24-4.63,0-9.77-.47-20.36-4.57-26.28-12.61-1.46-1.98-2.83-4.45-3.17-6.92,2.69.06,4.4.36,6.95.66Z"/>
          <path class="cls-28" d="M123.47,112.92c-.46-.29-2.95-1.58-3.31-1.66,1-3.07,4.04-.48,3.31,1.66Z"/>
          <path class="cls-24" d="M117.19,60.29c-10.89.14-23.36-2.1-30.18-11.35l-.92-2.55c13.48,1.57,21.59,4.04,31.1,13.9Z"/>
          <path class="cls-24" d="M113.22,65.25c-1.54-.05-3.1.07-4.63,0,.99-.53,3.65-.58,4.63,0Z"/>
          <g>
            <path class="cls-3" d="M38.43,69.89l1.57-1.39c3.66-.8,7.19-1.78,10.64-3.13,8.53-1.35,15.8-5.17,20.82-12.25,1.88-2.41,5.26-2.78,7.84-1.22,3.63,3.76,7.58,7.11,11.83,10.06,2.47.44,4.49,1.34,6.08,2.7,4.29.27,8.6.82,12.93,1.65,1.91-.36,3.38.06,4.41,1.27,3.04,4.01,7.22,7.07,9.86,11.49,5.14,8.6,3.93,17.97-.99,26.35-1.2,2.04-2.91,3.74-3.91,5.86-.21.91-1.3,2.07-2.32,1.99-.54,1.49-1.7,2.75-3.49,3.8-1.23,1.28-2.49,1.89-3.79,1.83-3.22,3.34-8.74,4.99-13.25,6.22-14.2,3.88-31.01,3.44-44.89-1.49-1.96-.7-7.27-2.6-8.28-3.98-.17-.23-.3-.49-.42-.75l-.9.23c-2.62-1.63-5.11-3.49-7.37-5.59v-.93c-1.01.35-2.52-.98-1.99-1.99-7.33-8.84-9.95-20.46-3.65-30.63,1.38-2.23,7.15-8.91,9.27-10.09Z"/>
            <g>
              <path class="cls-33" d="M79.13,45.73l.76.51c3.46,11.5,16.32,17.4,27.63,18.29l1.06.73c1.53-.25,3.11-.32,4.63,0,.73-.64,1.21-.16.66.66.22.36.27,1.13.66,1.66l-2.47-.68c-3.96.42-7.74-1.01-11.34-1.56-.88-.14-2.76.23-3.82-.07-.33-.09-.34-.71-.78-.93-1.66-.84-4.32-1.25-5.91-2.04-1.82-.9-6.25-5.2-8.1-6.79-1.59-1.36-2.62-3.34-4.87-3.73-4.58-.79-5.23,2.23-7.86,4.89-5.77,5.86-10.16,7.79-18.15,9.04-.95.15-3.58,1.58-4.92,1.98-2.59.75-5.52.92-7.87,2.22l2.07-3.22c5.8-.65,11.25-1.58,16.53-4.16,6.41-3.13,13.31-9.4,15.15-16.46,2.33-.17,4.53-.39,6.95-.33Z"/>
              <path class="cls-10" d="M55.64,83.13l.64.9c-.61,18.03,35.45,19.61,39.66,4,.06-1.54.42-2.85,1.06-3.91.8-2.33,4.11-.37,5.3.82,7.08,7.06-1.64,19.98-7.95,24.67l-.74-.42c-2.02-6.59-11.7-6.31-16.52-3.05-5.6-2.59-14.34-3.22-17.33,3.43l-.81.36c-5.47-3.61-10.5-9.9-10.91-16.72-.27-4.47,2.66-9.91,7.6-10.09Z"/>
              <path class="cls-6" d="M55.64,83.13c3.82-.14,6.04,3.3,9.16,4.91,5.81,3,13.81,3.95,19.96,1.54,4.36-1.71,7.34-6.12,12.25-6.45.01.33,0,.66,0,.99.31,15.14-17.75,16.55-28.79,14.07-7.77-1.74-12.96-6.67-12.57-15.06Z"/>
              <path class="cls-36" d="M94.36,109.61c-10,7.44-25.14,7.1-35.41.33,1.74-6.09,9.49-7.17,14.82-5.73.74.2,2.8,1.33,3.21,1.31.16,0,2.07-1.23,2.72-1.46,4.97-1.77,13.8-.84,14.65,5.55Z"/>
              <circle class="cls-11" cx="39.68" cy="82.83" r="6.75"/>
              <circle class="cls-37" cx="111.74" cy="82.14" r="6.68"/>
              <path class="cls-10" d="M64.16,72.79c-1.82,1.83-4.68-1.35-6.2-1.75-2.2-.58-4.36-.1-6.27,1.03s-4.36,5.24-6.63,3.27,1.37-5.67,3-6.91c3.93-2.99,10.91-3.65,14.83-.33,1.15.97,2.53,3.43,1.27,4.69Z"/>
              <path class="cls-31" d="M95.94,65.68c2.64-.19,6.15.81,8.31,2.42,1.69,1.26,4.72,4.23,3.16,6.42-1.96,2.76-5.09-2-6.93-2.98-2.31-1.23-4.44-1.24-6.79-.15-1.46.67-5.07,4.16-5.89.59-.9-3.98,5.05-6.07,8.14-6.29Z"/>
              <g>
                <path class="cls-14" d="M73.76,71.63c2.34-.32,7.12-.29,9.34.41,2.39.75,5.9,3.72,6.26,6.32,1.55,11.17-18.63,13.51-24.13,6.26-4.88-6.44,2.37-12.16,8.52-12.99Z"/>
                <path class="cls-22" d="M74.42,74.27c1.51-.24,7.79-.19,8.3,1.48,1.59,5.17-10.79,5.57-12.36,2.07-.77-1.72,2.74-3.34,4.06-3.55Z"/>
              </g>
            </g>
          </g>
        </g>
      </g>
    </g>
  </g>
</svg>