<?xml version="1.0" encoding="UTF-8"?>
<svg id="Calque_2" data-name="Calque 2" xmlns="http://www.w3.org/2000/svg" viewBox="0 0 738.03 865.14">
  <defs>
    <style>
      .cls-1 {
        fill: #faf4ec;
      }

      .cls-2 {
        fill: #f8f3e7;
      }

      .cls-3 {
        fill: #2d252b;
      }

      .cls-4 {
        fill: #faf4ea;
      }

      .cls-5 {
        fill: #2c2726;
      }

      .cls-6 {
        fill: #f8f2e7;
      }

      .cls-7 {
        fill: #f7f2e6;
      }

      .cls-8 {
        fill: #f7f0e4;
      }

      .cls-9 {
        fill: #fbf6ec;
      }

      .cls-10 {
        fill: #f6f1e5;
      }

      .cls-11 {
        fill: #f8f3e8;
      }

      .cls-12 {
        fill: #f7f2e7;
      }

      .cls-13 {
        fill: #31261f;
      }

      .cls-14 {
        fill: #2d2929;
      }

      .cls-15 {
        fill: #2c2628;
      }

      .cls-16 {
        fill: #faf5eb;
      }

      .cls-17 {
        fill: #f6f0e5;
      }

      .cls-18 {
        fill: #271f23;
      }

      .cls-19 {
        fill: #f6f1e6;
      }

      .cls-20 {
        fill: #2e2625;
      }
    </style>
  </defs>
  <g id="Logo_01_1500x1500px" data-name="Logo 01 1500x1500px">
    <g>
      <path class="cls-4" d="M706.48,499.64c2.01-37.57-9.5-75.69-42.2-96.76-46.75-30.13-102.93-10.31-137.81,27.89-2.82,3.08-11.89,16.13-14.52,16.54l-56.37-14.51c5.33-9.4,9.82-19.19,13.71-29.26,3.41-8.82,7.27-26.7,11.36-33.63,1.25-2.13,7.16-5.2,9.9-8.09,19.07-20.15,33.74-62.46,25.4-89.48-6.03-19.53-26.96-17.94-43.32-15.15-7.9-27.68-22.49-53.4-40.67-75.27C368.72,105.78,243.69,41.98,150.39,11.28c-13.1-4.31-39.78-13.65-52.7-10.71-2.98.68-8.65,4.85-10.74,7.25C58.37,61.09,29.53,116.36,9.99,173.78c-3.14,9.23-11.52,32.18-9.74,40.79,1.09,5.3,6.53,10.91,11.73,12.25,12.31,3.17,45.56-9.64,59.71-12.29,1.48-.28,5.88-1.31,5.27,1.25l-9.01,58.51c-62-3.32-49.43,56.77-23.41,90.93,5.19,6.81,12.2,11.81,17.2,18.35-7.07,35.15-36.45,58.54-48.5,91.45-7.16,19.55-12.7,54.73-4.72,74.26,5.03,12.31,22.21,16.6,32.88,9.04,8.57,12.92,18.94,25.83,33.55,31.99-5.3,14.24-13.09,28.12-18.01,42.46-3.75,10.92-8.13,21.98,2.52,30.52,5,4.01,13.48,5.54,17.49,8.52,1.82,1.36-2.29,11.79-4.04,12.94-1.68,1.1-8.91,2.69-11.92,4.07-27.77,12.79-33.53,35.42-13.05,58.99,19.93,22.93,60.01,52.66,86.9,67.02,1.93,1.03,10.59,2.97,5.57,4.48-6.53,1.96-18.55,4.72-18.62,13.47-.07,9.86,15.42,13.81,23.08,16.01,68.38,19.64,176.83,17.92,248.22,13.46,22.95-1.43,93.31-5.92,109.44-20.45,14.51-13.07-8.4-20.8-18.98-23,6.4-4.37,13.3-7.9,19.7-12.28,17.29-11.85,63.77-47.44,69.51-66.42,6.76-22.34-10.21-38.3-31.81-38.82-6.95-.17-17.63,4.74-21.85-1.07l-10.57-15.91c11.4,5.05,23.68,8.96,35.92,11.53,77.33,16.26,133.48-10.21,166.05-81.86,6.09-13.39,7.28-17.84,15.64-30.35,22.47-33.64,11.56-62.24-19.65-83.99ZM447.57,810.29c-1.21,1.08-20.96-1.82-24.43-2.04-64.86-4.09-130.85-6.23-195.84-1.95-14.47.95-28.94,3.54-43.47,3.98,4.3-12.2,1.52-26.66-.05-39.29,23.72-18.53,44.01-40.82,65.71-61.56l22.71,1.9c24.13.27,48.1-.31,71.92-4.07,26.56,20.66,50.91,44.55,73.99,69.02,8.54,9.05,20.62,21.42,27.96,31.01.77,1,1.94,1.27,1.49,3Z"/>
      <g>
        <path class="cls-18" d="M309.71,104.29c66.41,41.48,135.34,94.59,151.86,176,7.62-3.15,32.36-13.87,37.77-4.32,4.09,7.23,1.5,26.11-.31,34.33-3.92,17.86-13.15,34.16-27.57,45.4-1.61,1.25-6.5,3.5-6.98,4.26-1.64,2.56-3.17,14.14-4.41,18.34-1.92,6.51-4.29,14.73-6.5,20.99-1.85-.86-.43-3.26-.11-4.6.99-4.21,3.65-10.36,4.08-13.95.51-4.3-5.33,2.44-5.56,3.48-.57,2.62,1.69,4.6,1.4,7.38-.26,2.57-2.53,2.5-2.77,3.41-.84,3.12-.52,8.38-3.51,11.3-.41.4-10.15,3.15-11.01,3.1-2.53-.12-1.45-3.89-4.83-3-1.13.3-3.42,2.82-2.65,3.88.12.17,3.83-1.15,3.97-1,2.55,2.92-1.14,3.66-2.51,5.01-1.92,1.88-1,4-5.45,2.98-.51-1.76,2.38-.47,1.99-1.48-.56-1.46-2.28-.56-2.99-1.5l-.14-3.15c60.6-90.67,5.49-206.81-84.98-252.62-1.61,13.18-3.77,26.33-8.78,38.7l-3,2.07.22-7.51,1.77-3.49-1.48,1.99c-5.98-5.9-1.77-5.26-.7-8.7.54-1.75.67-7.95-.76-8.86-.56-.36-4.78,1.69-6.57-2.49-.67-1.56,1.14-10.58,2.49-11.53l6.03,1.57c-.29-2.97.58-6.67,2.54-8.96,2.36-2.78,4.2-.99,5.46-3.02-5.29,1.63-4.74-3.04-8.97-3.05.19-4.32,4.27-6.27,3.97-10.96-1.38,2.73-8.83.07-10.07-1.41-1.93-2.31-2.27-10.27-3.67-13.33-1.12-2.44-4.14-3.18-4.3-3.92-.75-3.47,3.05-5.44,3.04-5.84,0-.6-3.28-2.29-4.1-2.88-.49-.35-4.06-1.95-1.88-2.62Z"/>
        <path class="cls-1" d="M485.54,288.3c.9,12.75-3.21,25.4-8.81,36.67-2.17,4.37-5.3,10.55-9.16,13.32l-2.02-40.3c.38-1.35,19.24-10.53,19.99-9.7Z"/>
        <path class="cls-13" d="M337.2,142.3c3.92-1.01,4.51,4.39,1.97,4.98-1.95.46-4.62-4.3-1.97-4.98Z"/>
      </g>
      <g>
        <path class="cls-2" d="M423.6,414.29c-30.79,39.9-88.17,58.13-137.24,51.88-44.04-5.61-86.4-26.92-119.49-55.88-7.82,19.44-20.59,37.01-29.86,55.63-7.73,15.55-12.69,32.79-19.84,48.18-.65,1.41.6,2.73-2.26,2.18.89-14.65,3.76-27.86,8.96-41.52,8.1-21.29,22.94-40.05,28.22-61.75,1.32-5.42,7.39-14.6,9.79-21.2,8.76-24.07,13.76-50.97,22.14-75.34,36.22-6.66,64.85-25.61,91.26-50.15,20.89-19.41,40.2-40.34,51.42-67.03,6.38-15.17,7.91-26.48,10-42.51.18-1.39-.57-1.74,1.48-1.48,74.03,41.27,127.47,117.9,108.94,206.02-3.5,16.65-13.12,39.51-23.51,52.97Z"/>
        <path class="cls-20" d="M405.34,331.5c14.78-3.31,7.79,18.59,3.69,25.72-14.75,25.67-49.44,30.97-74.04,16.27-6.99-4.17-27.46-22.69-18.83-31.23,7.3-7.23,10.92,5.16,14,9.06,15.46,19.54,55.25,20.45,66.99-3.99,2.37-4.94,2.42-14.54,8.18-15.83Z"/>
        <path class="cls-15" d="M368.89,285.06c-6.47-6.45,1.98-22.23,7.84-27.18,12.73-10.73,30.08-8.44,39.12,5.67,3.92,6.12,7.36,22.31-3.68,20.77-7.03-.98-6.09-20.6-22.27-15.25-8.67,2.87-8.53,14.93-12.25,16.73-1.98.95-7.24.78-8.76-.73Z"/>
        <path class="cls-5" d="M302.48,269.56c10.05-1.38,19.94,3.56,25.65,11.8,3.02,4.35,7.6,16.15-.18,17.76-9.49,1.96-10.05-15.65-23.65-13.77s-9.56,21.16-18.17,21.95c-4.45.41-6.94-3.46-7.41-7.48-1.53-13.14,10.69-28.47,23.76-30.26Z"/>
        <path class="cls-14" d="M384.37,317.03c-6.27,7.7-12.78-8.14-19.14-7.72-5.53.36-10.85,13.49-16.59,7.25-3.4-3.69-1.21-8.9,1.2-12.59,5.4-8.28,18.34-11.6,26.76-6.12,4.79,3.12,12.12,13.85,7.77,19.19Z"/>
      </g>
      <g>
        <path class="cls-13" d="M309.71,104.29c1.93,1.71,4.41,3.79,7.43,6.25-3.2,2.47-2.66,5.19,1.59,8.15l3.39,12.92,4.23,1.68c8.99-.56,6.46,4.32,2.78,10.21l3.6,2.9c5.57.9,5.08,3.2-1.48,6.88l-1.27,3.03c-.19,5.27-1.97,6.7-7.09,4.79-.76.35-3.51,9.24-.42,9.76,8.3-1.57,7.9,10.56,3.51,14.9,3.18,2.14,3.88,4.27,2.12,6.39l-1.42,7.13c.19.86.33,1.73.34,2.59.06,11.7-28.57,44.29-37.74,53.67-28.41,29.07-62.99,55.76-104.05,62.26l-14.46,52.55c-3.44,14.72-9.22,27.86-15.87,40.52-5.76,18.06-13.61,35.38-23.56,51.95-7.16,14.19-11.89,29.61-13.73,45.46l11.97-30.68c11.41-23.41,23.74-46.33,37.01-68.74,39.36,30.88,84.93,55.22,135.97,56.47,43.06,1.06,88.73-15.92,116.95-49.14l4.09-1.91c5.64-1.23,7.08-2.1,4.32-2.61-1.84-3.05,5.75-11.59,8.22-4.2,9.98-1.67,11.8-3.17,12.72-13.29l2.51-2.55c-2.95-6.53-.23-15.42,7.49-12.99-2.07,6.92-3.84,13.8-5.29,20.64-5.53,15.62-15.84,29.14-25.97,41.99,14.04,5.13,28.3,9.8,42.74,13.73,11.28,3.07,39.45,11.34,49.68,11.37,1.45,0,2.93.14,4-1.08,21.47-43.97,79.42-76.99,126.25-51.4,24.02,13.13,37.61,39.96,39.11,66.85.49,8.84-1.66,17.11-.88,25.87,25.01,16.61,46.06,39.15,23.23,68.58-2.14,2.76-6.28,5.53-7.83,8.16-5.54,9.37-9.21,25.03-15.04,35.95-9.38,17.57-24.67,36.63-41.35,47.61-52.56,34.61-154.11,12.84-185.93-43.15-11.79-.51-22.49-4.58-32.98-9.48-.43,1.88,1.06,2.37,1.99,3.5,4.77,5.79,11.4,11.58,16.5,17.48,23.7,27.46,44.97,57.17,66.85,86.08,1.16,1.09,2.55,1.02,4.01.98,10.14-.32,35.65-11.17,39.14,5.92,2.04,10-15.45,24.96-22.58,31.55-10.67,9.86-44.82,39.03-57.69,41.24-7.8,1.34-13.73-.9-19.29-6.21-10.85-10.36-21.64-25.32-32.41-36.56-23.5-24.51-49.17-48.32-76.42-68.59-35.58,5.78-71.52,5.62-107.4,2.63-2.73.54-8.54,9.39-10.99,11.99-19.9,21.14-41.9,40.09-63.5,59.43-2.14,3.69,1.46,15.01,2.04,20.07,1.47,12.91,4.36,22.65-12.39,20.4-21.81-2.93-84.56-52.24-98.49-70.41-9.01-11.75-5.94-22.78,7.32-28.68,6.16-2.74,13.05-2.97,18.7-6.28l16.95-34.02c-5.11-4.1-30.38-10.99-30.99-17.05l26.55-63.5c-7.86-5.21-16.67-8.96-24.01-15-19.94-16.43-26.54-40.89-27.51-65.97l-12.93,40.54c-5.91,6.28-9.54-9.57-9.92-13.17-6.49-62.65,39.17-85.03,54.32-137.38,1.69-5.84,2.81-11.85,4.3-17.74-.08-2.12-12.85-10.76-15.33-13.22-9.65-9.54-22.1-30.72-24.99-43.99-5.82-26.74,12.34-26.76,33.06-26.1,2.74.09,9.18,2.8,10.31-.6,1.02-3.08.64-16.19,1.15-20.85,4.02-36.4,14.05-71.29,18.84-107.14,1.37-10.23,1.44-20.67,3.14-30.86-.67-1.43-1.77-.27-2.55.45-3.57,3.33-11.93,30.53-13.95,37.04-2.53,8.14-4.82,16.57-6.57,24.92-21.81,3.45-43,9.87-64.42,15.04-2.63.64-1.31-3.58-.99-5.01,11.31-49.64,47.35-123.43,71.95-168.97,1.71-3.17,8.23-16.24,9.76-17.72,3.32-3.21,17.09,1.05,21.74,2.23,61.41,15.68,134.14,49.99,187.81,83.51Z"/>
        <g>
          <g>
            <path class="cls-16" d="M151.88,238.29c4.51-6.3,8.31-13.15,13.46-19.01,10.23-11.64,32.08-28.51,48.02-29.02,6.2-.2,6.09,1.55,4.49,6.59-4.71,14.84-23.35,36.81-37.34,43.62-7.43,3.62-16.96,4.67-23.59,9.39s-11,13.79-15.04,20.94l16.18-6.81c11.36-3.1,25.26-2.78,34.75,4.8-15,15.52-36.65,22.07-57.98,18.93-3.16,8.01-6.46,15.83-8.92,24.12-.28.95.58,1.99-1.46,1.41s-9.39-5.13-9.36-7.26c.05-3.13,9.86-25.57,11.94-30.06,3.85-8.31,8.17-16.99,13.68-24.29-10.73-22.29-7.33-45.47,4.64-66.37,3.47-6.05,12.05-20.78,14.24-6.22,2.9,19.33-2.72,40.74-7.72,59.24Z"/>
            <g>
              <path class="cls-9" d="M106.9,372.3c-15.28-5.83-27.63-15.99-37.36-29.09-7.07-9.52-14.96-22.62-13.46-34.81,24.19-5,49.3,8.62,65.36,25.92-2.06,13.76-9.43,25.33-14.54,37.97Z"/>
              <path class="cls-3" d="M112.6,341.59c3.12,3.78-1.1,11.91-5.96,10.56-5.54-6.29-27.23-14.52-29.47-21.58-.44-1.39-.24-2.86-.23-4.27,3.07-3.13,32.23,11.14,35.66,15.29Z"/>
            </g>
          </g>
          <g>
            <path class="cls-2" d="M510.17,559.65c4.35,4.76,7.31,10.98-2.11,10.7-9.96-.3-30.83-18.12-37.76-16.89-6.19,1.1-5.79,7.9-2.28,11.88,2.19,2.48,11.86,8.71,15.2,10.79,2.55,1.58,12.45,5.76,13.34,6.64,1.6,1.57,1.32,5.59.45,7.52-3.64,8.11-19.42.69-25.13-1.81-4.8-2.1-17.96-10.74-21.75-10.2-1.39.2-3.5,1.82-4.06,3.06-3.63,8.07,17.18,19.22,23.21,21.74,2.58,1.08,7.04.63,5.07,4.05-1.74,3.03-10.29,3.3-13.61,2.48-13.54-3.33-42.13-21.54-46.86-35.09-14.45-41.35,36.95-82.59,75.05-78.12,13.47,1.58,17.09,6.45,4.27,14.06-6.13,3.64-19.28,7.02-23.58,10.39-2.09,1.64-2.32,3.84-1.33,6.16,3.08,7.25,34.12,24.16,41.87,32.64Z"/>
            <path class="cls-2" d="M668.36,494.79c-.04.25-1.1,2.4-1.46,2.39-34.38-15.46-71.55-22.91-108.94-26.89-2.66-.28-10.56,1.4-10.51-2.48.05-3.37,16.08-19.65,19.48-22.55,30.88-26.32,78.69-27.92,95.92,14.04,1.71,4.15,5.51,16.52,5.51,20.48,0,4.5.59,10.84,0,15Z"/>
            <path class="cls-12" d="M378.64,599.3c3.35,3.16-13.58,6.5-14.77,6.7-45.22,7.59-158.02-23.73-187.54-60.7-2.7-3.38-9.26-15.13-.91-11.09,7.18,3.47,15.23,10.12,22.73,14.25,55.37,30.49,117.88,44.58,180.49,50.83Z"/>
            <path class="cls-11" d="M416.61,511.29c-4.82.85-9.58,2.57-14.5,2.99-23.41,1.98-92.68-7.96-110.4-23.46-1.74-1.52-3.42-2.92-2.97-5.52,35.24,5.44,72.35,9.45,107.08,17.31,4.81,1.09,15.59,3.13,19.14,5.84,1.13.86,2.04,1.06,1.65,2.84Z"/>
            <path class="cls-11" d="M590.35,567.2c-2,1.72-32.54-6.06-36.95-8.41-1.36-1.19,3.03-18.35,4.19-21.38l37.44,7.83-4.68,21.96Z"/>
            <path class="cls-12" d="M541.49,508.29l-1.01,11.99c-6.65.08-16.44-.26-22.31,3.16-13.37,7.78,18.28,8.79,19.33,9.85-.93,5.12-1.42,11.67-2.96,16.54-.41,1.31.69,1.48-1.53,1.52-2.95.05-10.3-3.32-13.18-4.87-2.51-1.35-21.7-14.47-22.29-15.7-.75-1.58.75-1.39,1.25-1.75,4.72-3.39,13.8-7.96,16.78-13.18,1.16-2.04.66-5.23,1.89-6.11.23-.17,5.26-1.45,5.55-1.45h18.48Z"/>
            <path class="cls-6" d="M609.42,570.28l5.01-20.99,32.22,11.23c3.83.86,2.18,6.91.65,9.19-3.59,5.34-31.11,1.63-37.88.57Z"/>
            <path class="cls-12" d="M653.36,547.29l-33.81-14.13c-1.24-1.94,1.42-11.07,2.82-13.45,2.71-1.89,31.01,9.98,35.54,12.54l-4.55,15.05Z"/>
            <path class="cls-12" d="M602.32,514.41c1.37,1.94-2.46,10.02-1.91,12.87l-38.94-5.99c1.13-2.73,1.03-12.01,3.63-12.91,1.03-.35,17.04,1.64,19.7,2.05,2.43.38,16.87,3.06,17.51,3.97Z"/>
            <path class="cls-7" d="M667.37,568.29c1.46-4.02,6.62-25.09,8.97-26.58,3.16-2,16.84,9.76,16.61,15.1-.28,6.44-19.76,13.16-25.58,11.48Z"/>
            <path class="cls-19" d="M412.62,459.3c8.52,3.19,21.52,20.62,23.55,28.98,1.09,4.47-7.6,8.01-10.56,6.55-3.2-1.58-15.02-33.18-12.98-35.53Z"/>
            <path class="cls-12" d="M563.38,601.38c.15,22.31-37.82.58-27.94-6.66,1.49-1.09,23.96,6.1,27.94,6.66Z"/>
            <path class="cls-10" d="M601.43,645.3c.42,16.33-28.45,12.69-28.82-.52-.02-.88.57-3.38,1.49-3.57,4.7-.94,21.14,4.78,27.33,4.09Z"/>
            <path class="cls-19" d="M620.41,609.3c-1.48,11.96-18.71,14.26-26.24,7.03-2.77-2.66-4.93-10.4.75-10.13l25.48,3.09Z"/>
            <path class="cls-8" d="M519.13,627.36c1.21-.35,23.35,5.67,24.36,6.42,4.38,3.26-3.81,8.91-7.58,9.46-7.62,1.11-20.01-4.45-18.44-13.41.19-1.08.48-2.12,1.65-2.46Z"/>
            <path class="cls-17" d="M669.36,607.3c.08,11.08-12.97,16.44-21.97,12.49-4.37-1.92-6.79-6.42-3.33-10.53l25.3-1.95Z"/>
          </g>
        </g>
      </g>
    </g>
  </g>
</svg>