<?xml version="1.0" encoding="UTF-8"?>
<svg id="Calque_2" data-name="Calque 2" xmlns="http://www.w3.org/2000/svg" viewBox="0 0 117.43 146.58">
  <defs>
    <style>
      .cls-1 {
        fill: #1b0a15;
      }

      .cls-2 {
        fill: #2d224e;
      }

      .cls-3 {
        fill: #22224a;
      }

      .cls-4 {
        fill: #f5a631;
      }

      .cls-5 {
        fill: #f8cbdd;
      }

      .cls-6 {
        fill: #23224b;
      }

      .cls-7 {
        fill: #221f46;
      }

      .cls-8 {
        fill: #f8c980;
      }

      .cls-9 {
        fill: #212248;
      }

      .cls-10 {
        fill: #25244c;
      }

      .cls-11 {
        fill: #26234d;
      }

      .cls-12 {
        fill: #e72365;
      }

      .cls-13 {
        fill: #f7cb82;
      }

      .cls-14 {
        fill: #23234d;
      }

      .cls-15 {
        fill: #24234e;
      }

      .cls-16 {
        fill: #24244f;
      }

      .cls-17 {
        fill: #ea5a30;
      }

      .cls-18 {
        fill: #fccc82;
      }

      .cls-19 {
        fill: #23224c;
      }

      .cls-20 {
        fill: #f5b2ca;
      }

      .cls-21 {
        fill: #26234e;
      }

      .cls-22 {
        fill: #26224c;
      }

      .cls-23 {
        fill: #fccb80;
      }

      .cls-24 {
        fill: #23224d;
      }

      .cls-25 {
        fill: #2c2451;
      }

      .cls-26 {
        fill: #252450;
      }

      .cls-27 {
        fill: #222046;
      }

      .cls-28 {
        fill: #26244c;
      }

      .cls-29 {
        fill: #24224b;
      }

      .cls-30 {
        fill: #9b99cb;
      }

      .cls-31 {
        fill: #272550;
      }

      .cls-32 {
        fill: #24224c;
      }

      .cls-33 {
        fill: #979bcd;
      }

      .cls-34 {
        fill: #959bcd;
      }

      .cls-35 {
        fill: #23224a;
      }

      .cls-36 {
        fill: #ae1858;
      }

      .cls-37 {
        fill: #1d1432;
      }

      .cls-38 {
        fill: #f7a62f;
      }

      .cls-39 {
        fill: #f08eb0;
      }

      .cls-40 {
        fill: #9898cb;
      }

      .cls-41 {
        fill: #a3246d;
      }

      .cls-42 {
        fill: #e3377e;
      }

      .cls-43 {
        fill: #ea5a2e;
      }

      .cls-44 {
        fill: #242149;
      }

      .cls-45 {
        fill: #f18fb2;
      }

      .cls-46 {
        fill: #969cce;
      }

      .cls-47 {
        fill: #999bcc;
      }

      .cls-48 {
        fill: #f6a42e;
      }

      .cls-49 {
        fill: #9899cc;
      }

      .cls-50 {
        fill: #25234e;
      }
    </style>
  </defs>
  <g id="Calque_1-2" data-name="Calque 1">
    <g>
      <g>
        <path class="cls-33" d="M100.72,45.86c.9.34,1.16,1.49.79,3.46,4.13-.49,4.65.19,4.45,4.25h2.09c-.33-1.68-.08-5.91,1.68-3.43-.67,1.27-.44,2.86-.43,4.29.73.88.87,1.91.95,3,1.51-.29,2.48,0,2.91.86,0,.03.4.42.43.43-.78.99-.42,2.94-.43,4.29-.12.37-.26.37-.43,0-2.56-.22-5.13-.36-7.71-.43-1.15-.16-1.59-1.17-1.32-3.02-3.64.56-3.99-1.19-3.89-4.29-3.62.23-4.83-.91-4.29-4.62l.93-.51c-1.22-.51-2.67-.32-3.93.04-.16-.12.18-2.33.73-2.56-.76-.43-1.06-1.41-.23-1.77,2.14-1.33,5.63-1.39,7.71,0Z"/>
        <path class="cls-14" d="M16.72,45.86c.84,1.42.84,2.87,0,4.29-.32.89-1.47,1.16-3.45.79.79,3.98-1.62,5.4-4.81,3.86.4-2.75-.13-4.3-1.6-4.65-.86-.02-1.72.02-2.57,0-.02-1.42.03-2.86,0-4.29l1.13-.78c3.41.24,6.81.11,10.22-.04l1.08.82Z"/>
        <path class="cls-14" d="M112.72,46.29c.06-.3.21-.27.43,0v3.86c-1.13.04-2.29-.06-3.43,0-.19,0-.82-.06-.86,0-.23.3.16,3.5,0,4.29h-3.86c-.12-.72.17-4.12,0-4.29-.2-.2-4.09.2-4.29,0-.15-.15.02-3.51,0-4.29l1.44-.79,9.12.42,1.45.8Z"/>
        <path class="cls-30" d="M6.86,50.15c.39,0,1.65-.07,1.72,0,.27.28-.4,4.2.24,4.3h3.61c.12-.73-.17-4.13,0-4.3.15-.15,3.59.01,4.29,0,.08-.38.22-.37.43,0,1.23,3.46.72,5.99-3.71,5.09.3,2.98-.44,4.46-2.21,4.46l-6.41-.12-.53-.86c-.14,0-.29,0-.43,0,.08-.17.41-.34.43-.43.35-.82,1.35-1.14,3-.95-.29-1.51,0-2.48.86-2.91,0-1.83.7-3.85-1.29-4.29Z"/>
        <path class="cls-25" d="M104.58,33.01c1.21,1,8.19.05,8.57.43.02,1.42-.03,2.86,0,4.29-1.4,1.44-8.39,1.33-9.18-.32-.12-.24.06-3.86.6-3.96-.39-.04-.37-.19,0-.43Z"/>
        <path class="cls-21" d="M113.15,37.72c1.42.02,2.86-.02,4.29,0v8.14c-1.48-.39-3.11.34-4.29.43-.14.01-.29,0-.43,0-.63-.9-.75-2.11-.37-3.64-.34-2.13-.08-3.77.79-4.93Z"/>
        <path class="cls-31" d="M12.44,33.44c.84,1.41.84,2.87,0,4.29-2.48,1.3-5.64,1.24-8.14,0,.03-1.42-.02-2.86,0-4.29,2.71,0,5.44.02,8.14,0Z"/>
        <path class="cls-10" d="M4.29,37.72c1.15,1.39,1.16,2.9,0,4.29,1.17,1.24,1.16,2.61,0,3.86-1.41-.11-2.87.08-4.29,0v-8.14c1.42-.02,2.86.02,4.29,0Z"/>
        <path class="cls-8" d="M16.72,33.44c.08-.38.22-.37.43,0,1.71,4.27-.45,6.43-4.71,4.71-.38-.08-.37-.22,0-.43,0-1.42,0-2.86,0-4.29.14,0,.29,0,.43,0,1.24-1.18,2.61-1.16,3.86,0Z"/>
        <path class="cls-35" d="M16.72,29.15c.84,1.41.84,2.87,0,4.29-1.28.02-2.57-.01-3.86,0v-4.29c1.28-.02,2.58.03,3.86,0Z"/>
        <path class="cls-9" d="M109.29,54.44h3.86c.22.21-.22,3.15,0,3.86h-3.86c0-1.28.01-2.57,0-3.86Z"/>
        <path class="cls-44" d="M104.58,29.58c.08,1.12-.11,2.32,0,3.43.01.14-.01.29,0,.43.08,1.34-3.8.99-4.31.52-.56-.52-.87-4.3.45-4.38,1.25.12,2.59-.08,3.86,0Z"/>
        <path class="cls-3" d="M8.15,54.44v3.86s-3.86,0-3.86,0c.13-.75-.17-3.69,0-3.86h3.86Z"/>
        <path class="cls-17" d="M96.01,24.86c.71,1.31.37,2.86.43,4.29,1.51-.38,3.06.31,4.29.43v3.86s3.86,0,3.86,0c.02.29.41.86.45,1.5.07.88-.59,2.27-.05,2.59,2.69.41,5.46.16,8.17.2.05,2.76.3,5.95-.43,8.57-4.05.25-8.07-.29-12-.43-1.04-.88-1.23-2.3-.4-3.31-1.32.57-2.6.08-3.89-.54-.9-.47-1.19-1.63-.86-3.46-4.35.6-4.67-.6-4.26-4.62l.83-.49c-.04.33-.14.83-.38.86-1.52.17-5.63.17-7.16,0l-.6-.86c-.85-.02-1.12-.83-.81-2.45l-.24-1.02c-20.65.43-41.3.16-61.95-.81l-.57-.19c.12-1.34.31-2.78.55-4.32l75.02.23Z"/>
        <g>
          <path class="cls-16" d="M12.44,4.29c.08-1.17.82-2.81.43-4.29h91.47s.67,4.29.67,4.29c-.08.38-.22.37-.43,0-5.19,1.26-11.11,1.34-16.29,0-19.51,1.32-39.22,1.45-58.71,0-3.79,1.32-9.01,1.21-12.86,0-1,1.3-3.25,1.24-4.29,0Z"/>
          <path class="cls-15" d="M16.72,21.01c4.42-.84,8.87-.84,13.29,0,19.4-1.24,38.88-1.21,58.29,0,5.17-1.34,11.09-1.25,16.29,0-.07.74.14,3.72,0,3.86-.25.26-3.77-.39-3.87.24.14.7-.16,3.87,0,4.04.29.29,3.27-.53,3.86.43-.61,1.24-3.38,1.35-3.86,0-.05,1-4.46.3-4.69.09-.52-.47-.85-4.34-.03-4.8l-75.05-.23c-.39,1.32-.45,2.72-.17,4.2l-3.64.32c-.08.38-.22.37-.43,0,0-.69.15-4.14,0-4.29-.19-.19-3.68.19-3.86,0-.13-.13.09-2.74,0-3.43v-.43c.2-1.33,3.54-1.27,3.86,0Z"/>
          <path class="cls-32" d="M105.01,4.29c1.28.03,2.58-.02,3.86,0v16.71c-1.42.02-2.86-.02-4.29,0-.65-3.03-.77-6.22-.36-9.57-.37-2.7-.25-5.08.36-7.14.14,0,.29,0,.43,0Z"/>
          <path class="cls-16" d="M12.01,4.29c.07,5.44.21,10.87.43,16.29.59-.59.83-.35.43.43.03.12-.02.28,0,.43-.78-.81-4.08-.21-4.29-.43-.59-.59.45-14.64,0-16.72,1.14-.04,2.3.06,3.43,0Z"/>
          <path class="cls-1" d="M12.44,20.58c0-.06-.37-.33-.45-1.03-.54-4.7.45-10.44.03-15.26.14,0,.29,0,.43,0l.77,1.63c.16,2.26.47,12.78-.16,13.88-.16.28-.38.54-.61.78Z"/>
          <path class="cls-48" d="M88.29,4.29c.6,2.61.71,5.39.34,8.35.4,2.97.29,5.76-.34,8.36-19.42.05-38.86,0-58.29,0l-1.37-.51c-.75-.82-.74-15.28-.17-15.83l1.11-.38c19.56.11,39.15-.04,58.71,0Z"/>
          <path class="cls-43" d="M104.58,4.29c.49.71.42,1.52.45,2.34.17,4.82-.02,9.64-.45,14.38-5.42.09-10.87-.01-16.29,0-.63-5.48-.73-11.24,0-16.71,5.42.01,10.87-.08,16.29,0Z"/>
          <path class="cls-18" d="M29.58,4.29c-.49.71-.42,1.52-.45,2.34-.11,3.6-.38,9.05,0,12.47.09.81.36,1.31.88,1.91h-13.29c-.33,0-.85-.08-.86-.29-.11-1.93-.49-15.3,0-15.92l.86-.5c4.38-.16,8.51-.02,12.86,0Z"/>
          <path class="cls-4" d="M16.72,4.29v16.71h-3.86c-.05-.17-.42-.34-.43-.43.28-5.32-.38-11.01,0-16.29,1.44-.04,2.85.05,4.29,0Z"/>
          <path class="cls-37" d="M17.15,29.15l3.43-.43c-.24-1.48-.73-2.96.27-4.31l75.16.45H21s0,4.29,0,4.29c-.08.38-.22.37-.43,0-1.1,1.17-2.33,1.16-3.43,0Z"/>
        </g>
        <path class="cls-13" d="M20.58,29.15c1.44-.2,1.37,4.45.83,4.81-1.06.69-3.4.54-4.26-.52-.14,0-.29,0-.43,0,0-1.42,0-2.86,0-4.29.14,0,.29,0,.43,0,1.14-.02,2.29,0,3.43,0Z"/>
        <path class="cls-47" d="M93.01,45.86c-.36,1.56,1.48.22,1.29,1.5-.16,1.09-1.41,1.23-1.29,2.35.8.17,3.14-.44,3.43.43-4.3-.35-4.64-.03-4.29,4.29h-8.14c1.37-6.43-3.51-3.5-4.29-4.28-.16-.16.11-3.17,0-3.86,1.13-.32,2.65-.45,3.86,0,.5-.4.7-.17.43.43.39.1.38.25,0,.43-.28,3.29,1.41,3.26,4.3,2.78.53-.09,2.91-.49,2.97-.64-.05-1.03.25-2.04.87-3-.38-.08-.37-.22,0-.43.14-1.14.53-1.09.86,0Z"/>
        <path class="cls-11" d="M96.44,42.01c1.43,0,2.86,0,4.29,0,.02,1.28-.04,2.58,0,3.86-2.55-.09-5.16,0-7.71,0h-.86c-2.35-3.68-.08-6.05,4.29-3.86Z"/>
        <path class="cls-38" d="M21.01,29.15c20.64-.1,41.29.08,61.93,0,1.82-.15.83,4.29,1.07,4.29h8.14c.12.73-.17,4.12,0,4.29s3.57-.13,4.29,0v4.29c-1.43,0-2.87,0-4.29,0-.02,1.28.03,2.58,0,3.86,0,.14,0,.29,0,.43-.05.25-.12.46-.27.54-.39.23-8.07-.33-8.68-1.22l-.13-2.8c-1.77.37-2.89.1-3.34-.8-1.27-1.11-1.23-3.16,0-4.29-.09.33-.23.83-.49.86-1.01.11-7.38.11-7.8-.29-.14-.14-.22-.35-.28-.57,1.23,1.12,1.27,3.18,0,4.29-.19.81-1.2,1.13-3.05.94.41,1.69.14,2.66-.81,2.91.09.31-.11.42-.43.43l-1.71.8c-2.38.18-12.47.54-13.76-.19-.3-.17-.56-.38-.82-.62-.31.12-.38-.11-.43-.43-.78-.38-1.13-1.39-1.03-3.02-1.46.33-2.4.05-2.83-.84-1.24-1.25-1.21-3.02,0-4.29-.09.33-.23.83-.49.86-1.01.11-7.38.11-7.8-.29-.14-.14-.22-.35-.28-.57,1.06,1.47,1.08,2.82,0,4.29-.54.9-1.59,1.18-3.14.84-.12,1.23-.5,2.23-1.15,3.02.38.08.37.22,0,.43-.04.33-.13.81-.38.86-.58.12-6.6.13-7.16,0l-.6-.86c-.38-.08-.37-.22,0-.43-.75-.42-1.08-1.42-1-3.01h-6.68c-.06,1.07-.37,2.08-.89,3.01-4.67.17-7.66.39-12.43,0-.02-1.28,0-2.57,0-3.86l.38-.86h6.89c-.21-1.27.08-2.27.87-3,.78-.81,4.07-.21,4.29-.43s-.38-3.5.43-4.29c1.28-.03,2.58.02,3.86,0l-.43-4.29c.14,0,.29,0,.43,0Z"/>
        <path class="cls-23" d="M12.44,37.72c0,.14,0,.29,0,.43-.03,1.28.02,2.58,0,3.86H4.29c0-1.43-.03-2.86,0-4.29,2.71-.05,5.44.03,8.14,0Z"/>
        <path class="cls-40" d="M79.72,42.01c.83.22,1.12,1.23.88,3.03,2.19-.42,3.18,0,2.98,1.25-.95-.2-2.73.02-3.86,0-2.84-.06-5.75-.08-8.57,0l-1.29.87c-3.46-.76-1.05,3.59.35.83l.94.02c0,.42.08,2.07,0,2.15-.11.11-2.2-.08-2.81,0s-1.22.41-1.48.43l-.63.89-7.44-.11c-2.54,1.56-4.54,1.56-6.01.02-1.12.27-1.86,0-2.21-.8-.33-.04-.86-.36-1.48-.43-1.28-.16-3.17.61-2.81-.85l.56-.8c3.04,1.11,3.62-1.94.65-1.14l-.78-.64c-.16-.1-.3-.37-.43-.43v-.43c.6-1.25,3.38-1.35,3.86,0,.31.03.4.43.43.43.75.41,1.12,1.41,1.1,3h13.84c.14-1.47.58-2.47,1.35-3,0-.27.42-.4.43-.43.3-.86,1.22-1.15,2.77-.86.05-1.25.42-2.25,1.09-3l.67-.92c1.68-.43,6.99-.54,7.91.92Z"/>
        <path class="cls-34" d="M50.58,50.58c.85.1,1.87-.17,2.69.02.32.07.34.68.64.81,2.59,1.08,2.51-.48,4.19-.8,2.38-.46,6.13.17,8.77-.02v3.86c-4.79-.32-10.08.42-14.81.02-3.15-.27-1.47-1.55-1.48-3.88Z"/>
        <path class="cls-33" d="M46.72,46.72c.36-.28,3.23-.63,3.43-.43v3.43s-3.86-.43-3.86-.43c-.03-.65-.07-2.18.43-2.57Z"/>
        <path class="cls-34" d="M71.15,46.29c0,.57,0,1.14,0,1.71-1.55,3.53-4.59,1.38-3.86-1.72,1.28-.03,2.58.04,3.86,0Z"/>
        <path class="cls-6" d="M79.72,42.01c.8.07,4.14-.15,4.29,0,.18.18-.2,2.79.06,3.59.46,1.4,6.51.41,8.08.7-.03,1.28.02,2.58,0,3.86h-8.15s0-3,0-3c1.22.66,1.22.52,0-.43-.12-.17-.19-.38-.43-.43-.59-.96-3.58-.14-3.86-.43-.14-.14.02-3.14,0-3.86Z"/>
        <path class="cls-16" d="M84.01,46.72l7.72.21c-1.47.7-1.99,2.61-3.62,2.81-.52.07-3.55.11-3.67-.03-.09-.1-.04-1.54-.43-2.57-.05-.14.06-.34,0-.43Z"/>
        <path class="cls-19" d="M66.86,46.29l-.25,3.86h-16.04s0-3.86,0-3.86c5.31.34,10.94-.25,16.29,0Z"/>
        <path class="cls-29" d="M37.72,42.01c.02-1.42-.01-2.86,0-4.29h8.57c.02,1.42-.03,2.86,0,4.29-.14-.01-.29.01-.43,0-.92.79-2.27,1-4.06.65-1.79.35-3.15.13-4.08-.65Z"/>
        <path class="cls-28" d="M71.15,42.01c.04-1.42-.03-2.86,0-4.29h8.57c.03,1.42-.04,2.86,0,4.29-3.59-.29-4.98-.33-8.57,0Z"/>
        <path class="cls-15" d="M16.72,45.86c0-1.28,0-2.58,0-3.86h8.33c.46.06.23,3.15.25,3.86-2.85.08-5.73-.11-8.57,0Z"/>
        <path class="cls-24" d="M37.72,42.01c1.17.81,1.18,1.76,0,2.57-.01.43.02.86,0,1.29h-4.29c.03-1.28-.02-2.58,0-3.86,1.41-.08,2.88.12,4.29,0Z"/>
        <path class="cls-7" d="M71.15,42.01c-.03,1.28.03,2.58,0,3.86h-3.86c.22-.71-.22-3.65,0-3.86.14-.14,3.12.07,3.86,0Z"/>
        <path class="cls-27" d="M46.29,42.01c1.25.12,2.59-.09,3.86,0v3.86c-1.26-.11-2.59.08-3.86,0-.02-1.28.03-2.58,0-3.86Z"/>
        <g>
          <path class="cls-49" d="M46.29,45.86c.37.12.37.26,0,.43-.39-.18-8.27-.3-8.57,0-.19.19.19,3.67,0,3.86-.11.11-2.2-.08-2.81,0s-1.22.41-1.48.43l-1.07.91c-1.3-.16-7.69-.43-5.79,1.49l6.18.27.68.76c-.96.53-7.85.72-8.14.43-.26-.26.48-3.49-.4-4.1-.59-.41-6.43-.21-7.74-.19-.14,0-.29,0-.43,0,0-1.43,0-2.86,0-4.29,2.21-1.42,6.27-1.28,8.57,0,0,.14,0,.29,0,.43.83.39,1.11,1.39.85,3.01h6.41c-.21-1.27.09-2.27.88-3.01,0-.14,0-.29,0-.43l.47-.86c1.4.18,2.67.03,3.82-.43l.83-.64c2.13.3,4.29.35,6.46.17-.23-1.16.05-1.86.86-2.1.04-.39.19-.36.43,0,1.24,1.11,1.21,2.74,0,3.86Z"/>
          <path class="cls-46" d="M33.44,50.58c-.1.63.15,3.28,0,3.43-.27.28-6.72-.02-7.72-.25v-3.18c2.55-.13,5.19.19,7.72,0Z"/>
          <path class="cls-15" d="M33.44,46.29c-.03,1.28.02,2.58,0,3.86h-7.9c-.46-.06-.23-3.15-.25-3.86h8.14Z"/>
          <path class="cls-33" d="M45.86,42.01v3c-2.65-.22-5.62.49-8.14-.43.03-.85,0-1.72,0-2.57,3.44-.28,4.72-.27,8.14,0Z"/>
          <path class="cls-33" d="M37.29,49.72h-3.43s0-3.43,0-3.43c3.29-.33,3.76.15,3.43,3.43Z"/>
        </g>
      </g>
      <g>
        <path class="cls-50" d="M3.86,58.72h.43c1.33.2,1.27,3.54,0,3.86.37.12.37.26,0,.43.37.12.37.26,0,.43.16,20.72.16,41.43,0,62.14l.85,1.22c-.17,3.46-.1,6.9.23,10.34l-.65,1.3c-.04.39-.19.36-.43,0-1.27-.09-2.94-.62-4.29-.67V58.72c1.29-.02,2.58.03,3.86,0Z"/>
        <path class="cls-26" d="M113.58,58.72c.57.17,3.86-.19,3.86,0v79.28c0,.22-3.7-.36-4.29.43-.38-.08-.37-.22,0-.43-.3-25-.3-50,0-75-1.45-.7-1.43-4.39.43-4.29Z"/>
        <path class="cls-2" d="M113.15,138.01c0,.14,0,.29,0,.43-.02.72.14,3.72,0,3.86-.21.21-3.33-.42-4.29.43l-.22.95c.38,2.49-.26,3.32-1.92,2.48.03-.64.46-1.07,1.29-1.29-.64-.28-.93-.7-.85-1.25-31.73-.04-63.45-.05-95.18-.04l-.82-.85c-.25,1.21-1.94,1.28-2.14,0-.13.38-.28.38-.43,0-.07-.03-.42-.38-.43-.43-1.44-.18-1.15-3.2,0-3.86,1.05-.01,1.58.99,1.6,3h98.05c-.07-2.61.57-3.75,1.92-3.43,1.17-.03,2.32-.03,3.43,0Z"/>
        <path class="cls-32" d="M9.01,142.72l.86.46c-.53,1.69.46,2.49,2.96,2.4,31.26.34,62.46.34,93.6,0l.3.57c3.18.72.77-2.22,2.14-3.43v3.86s-100.04,0-100.04,0l-.25-3.86c.1.04.28-.02.43,0Z"/>
        <path class="cls-22" d="M8.15,138.43c.16,1.15-.23,2.81,0,3.86h-3.86s0-3.86,0-3.86c.14.01.29,0,.43,0,.21-1.34,3.61-1.65,3.43,0Z"/>
        <path class="cls-36" d="M112.72,63.01c.32,24.78.39,49.7.22,74.76-1.03.31-2.15.36-3.22.24-1.75,1.1-.3,4.17-1.1,4.29H8.58c-.15-1.27.45-2.92-.43-3.86-.52-.56-2.2.07-3.43,0-.78-4.09-.42-8.65-.43-12.86.12-.37.26-.37.43,0,4.12-.53,3.99.47,3.86,4.29h8.14c.21,0-.21,4.29,0,4.29h58.71c.21,0-.21-4.29,0-4.29h12.43c.12-.73-.17-4.12,0-4.29.2-.2,4.09.2,4.29,0,.24-.24-.46-3.07.4-3.67.72-.5,3.88,0,3.88-.19v-12.86c0-.21,4.29.21,4.29,0v-16.71h4.29s-.43-29.14-.43-29.14c2.45-.36,5.59-.45,8.14,0Z"/>
        <path class="cls-20" d="M46.29,46.29c.47-.41.72-.17.43.43.84.68.64,2.21-.43,2.57.49.58,2.76.89,4,.3l.29.99c.84.49.97,1.43.38,2.8,4.96.37,9.98.41,15.05.11-.29-1.51,0-2.48.86-2.91-.23-.68.1-1.02.73-1.14,1.58,1.08,3.39.6,3.55-1.43-.83-.54-.83-1.17,0-1.71,2.62-1.35,5.94-1.33,8.57,0,.9.17,1.18,1.22.84,3.13l1.47-.14c2.42-.1,4.58,3.89,1.97,5.15l.38-.86c.64-.09,6.84-.15,7.16,0s.48.52.6.86c-1.96-.99-.85-3.63.36-4.78,1.14.08,2.45.24,3.93.49-.9,6.42,2.13,3.25,3.88,4.47.92.64-.12,3.27.8,3.91.75.52,3.25-.02,3.46.19.19.19-.34,3.14.43,3.86-25.28.27-50.58.33-75.86,0q-1.14-1.01,0,0c.52.99-.49,1.29-1.41,1.31-3.5.09-7.2-.09-10.7-.33-.36-.02-.7-.34-1.03-.73-3.92,0-7.82-.08-11.71-.26v-3.86c1.2-.02,7.86.29,8.14,0,.15-.15-.26-3.76.49-4.23.59-.37,3.55.19,3.8-.06.21-.21-.38-3.51.43-4.29.01-.33.08-.82.31-.86,2.29-.38,7.04-.33,8.4,1.16-.54.54-.43,3.67-.23,3.69,2.58.24,5.23.25,7.8-.13-1.22-.27-1.33-3.29,0-3.43.29-1.17,1.45-1.62,3.48-1.35-.38-1.69-.02-2.96,1.08-3.81,2.6.2,5.36.32,7.85-.05l.45.92Z"/>
        <path class="cls-41" d="M113.15,138.01c-.92.48-2.64.86-3.43,0,1.05-.66,1.78-.45,3-.43V63.01s.43,0,.43,0c-.14,24.98.38,50.02,0,75Z"/>
        <path class="cls-32" d="M11.15,142.72h96.86c-.05.69.08,1.46,0,2.14-.75.79-2.44.81-3.57.83-29.77.27-59.79.15-89.66.04-2.17,0-5.09-.4-3.62-3.01Z"/>
        <path class="cls-22" d="M11.15,142.72c.77,2.28,1.29,2.4,3.63,2.59,29.31-1.07,59.55,1.36,88.75,0,1.53-.07,2.94-.59,4.48-.45-.15,1.18-.27.65-1.29,1.29H9.01s0-3.43,0-3.43c.7.07,1.44-.05,2.14,0Z"/>
        <path class="cls-5" d="M29.15,62.58h-8.14c-1.24-6.06,4.3-3.27,8.15-3.86v3.86Z"/>
        <g>
          <path class="cls-12" d="M4.29,63.01c1.59-.21,12.24-.62,13.11-.03.33.22.29,3.85-.16,4.34-.51.55-4.71.89-4.81-.45.33,0,.85.09.86.3.28,14.98.28,30.49,0,45.47l-.86.52.49-.86h7.47l.61.86-.86-.29v-41.19l.86-.52c.27-.94,1.43-1.21,3.46-.8-.52-4.21.29-4.62,4.3-4.42-.33-1.45-.1-2.5.7-3.13,25.04-.14,50.07-.07,75.11.22.34.03.85.15.86.38.16,3.63,1.09,28.13.09,29.2-.53.57-4.7.91-4.81-.44.33,0,.81.06.86.29.55,2.83.23,12.63,0,15.92l-.86.5c-.08,1.45-3.78,1.18-4.29,0,.33.04.83.14.86.38.21,2.1.35,10.02,0,11.86l-.86.62c-.15.88-1.28,1.16-3.39.85.29,3.89-.6,4.26-4.37,3.81.4,1.88.13,3.04-.81,3.48-.04.34-.15.84-.39.86-1.5.14-10.44.28-11.41,0l-.63-.86c1.22.4,1.4,4.04,0,4.29l-.3.86H17.25l-.52-.86c-1.45-.08-1.18-3.78,0-4.29-.04.33-.14.83-.38.86-1.52.17-5.63.17-7.16,0l-.6-.86c-.74-.53-1.09-1.64-1.06-3.32-1.34,0-2.27-.33-2.8-.96-.34-20.57-.48-41.29-.43-62.14v-.43Z"/>
          <path class="cls-45" d="M29.15,62.58c25.27-.04,50.59-.19,75.86,0,2.17.02,5.06-.27,7.09-.01.34.04.64.02.62.44h-8.14c-24.99,0-50.01,0-75,0-.12.68.17,3.7,0,3.86-.2.2-4.09-.2-4.29,0s.2,4.09,0,4.29c-.17.17-3.56-.12-4.29,0v42h-8.57v-46.29h4.29s0-3.86,0-3.86H4.29s0-.43,0-.43c7.83-.4,15.62.47,23.41.46.79,0,1.37-.46,1.45-.46Z"/>
          <path class="cls-42" d="M4.72,125.58h-.43c-.03-20.71,0-41.44,0-62.14l.43,62.14Z"/>
          <path class="cls-39" d="M21.01,117.43v8.14h-8.57v-7.93s.6-.64.64-.64h6.43c.23,0,.95.66,1.5.43Z"/>
        </g>
      </g>
    </g>
  </g>
</svg>